<?xml version="1.0" encoding="utf-8"?>
<!-- Generator: Adobe Illustrator 27.3.1, SVG Export Plug-In . SVG Version: 6.00 Build 0)  -->
<svg version="1.1" id="Layer_1" xmlns="http://www.w3.org/2000/svg" xmlns:xlink="http://www.w3.org/1999/xlink" x="0px" y="0px"
	 viewBox="0 0 518 120" style="enable-background:new 0 0 518 120;" xml:space="preserve">
<style type="text/css">
	.st0{fill-rule:evenodd;clip-rule:evenodd;fill:#061422;}
</style>
<path id="path1" class="st0" d="M64.5,6.2c-1.2,0.2-2.1,0.5-3.1,0.9c-0.5,0.2-0.9,0.3-1.1,0.3c-1.4-0.3-4.4,2.2-6.5,5.5
	C53,14,52,16.6,52.1,16.9c0,0.1,0,0.2-0.1,0.2c-0.4,0-0.6,1.2-0.3,1.7c0.2,0.3,0.2,0.4-0.1,0.6c-0.3,0.4-0.3,1.1-0.1,1.7l0.2,0.4
	l-0.4,0.4c-0.6,0.5-0.6,0.7-0.4,2l0.2,1.1l0.1-0.8c0.1-1.1,0.3-1.7,0.6-2l0.3-0.2v1.8c0,2.3,0.3,2.3,0.4,0.1
	c0.1-1.6,0.2-1.9,0.7-2.3c0.5-0.4,0.5-0.4,0.4,1.6c-0.1,0.9-0.1,2.5-0.1,3.4c0,1-0.1,1.7-0.1,1.7c-0.2,0.1-0.6-0.1-0.7-0.4
	c-0.1-0.4-0.4-0.6-0.4-0.3c0,0.8-0.7-0.2-0.9-1.3l-0.2-0.8l-0.1,0.8c-0.1,0.8-0.1,1.1,0.1,1c0.1,0,0.1,0,0.1,0.1
	c0,0.2-0.3,0.3-0.4,0.1c-0.2-0.4-0.1,1.3,0.2,2.3c0.2,0.6,0.3,1.2,0.4,1.3c0.1,0.6,0.9,1.3,1.4,1.4c0.4,0.1,0.5,0.1,0.7,0.6
	c0.5,1.1,3.4,1.8,4.6,1.1c0.5-0.2,0.7-0.2,0.7,0.1c0,0.1,0.1,0.6,0.2,0.9c0.2,0.8,0.2,0.8-0.9,1.2c-0.4,0.1-1.3,0.5-2,0.9
	c-0.8,0.4-2.3,1.1-3.4,1.6c-8.7,3.8-10.7,5.7-13.1,12.5c-1.5,4.1-1.8,4.9-2.2,5.8c-0.2,0.5-0.6,1.2-0.9,1.5
	c-0.2,0.3-0.6,0.8-0.7,1.2l-0.3,0.6l0.4,0.7c0.5,0.9,0.6,0.7-0.5,3.1c-1.7,3.8-2.9,6-3.1,6c-0.1,0-0.9-3-0.9-3.3
	c0-0.3,0.5,0.2,0.5,0.5c0,0.2,0.1,0.3,0.1,0.3c0.1,0,0.1,0.1,0.1,0.3c0,0.1,0.1,0.4,0.2,0.6s0.2,0.5,0.2,0.7c0,0.3,0,0.3,0.1-0.1
	c0-0.2,0-0.6-0.1-0.8c-0.1-0.2-0.3-1-0.5-1.8c-0.2-0.8-0.7-2.2-1-3.2c-0.3-1-0.7-2.3-0.9-2.8c-0.7-2.5-1-3.3-1.4-3.7l-0.4-0.4
	l-4.4,0.1c-4.7,0.1-4.9,0.1-6.7,0.8l-0.7,0.2l1-0.1c1.4-0.1,7.3-0.3,8.1-0.3c0.7,0-1.9,0.2-5.5,0.4c-1.2,0.1-3.5,0.2-5.3,0.4
	c-3.9,0.3-6.2,0.4-5.4,0.2c1-0.2,1.2-0.2,2.2-0.3c0.5,0,1.2-0.1,1.5-0.1l0.6-0.1l-0.5-0.2c-0.4-0.2-1-0.3-2-0.3
	c-0.8-0.1-1.7-0.2-1.9-0.2C9,57,8.8,57,8.6,57c-0.2,0-0.8,0.1-1.4,0.2l-1.1,0.1v0.5c0,0.5,0,0.5,0.5,0.6c0.3,0.1,0.9,0.2,1.3,0.4
	c1,0.3,1.4,0.3,6.9-0.3c2-0.2,4.6-0.4,5.7-0.5c1.2-0.1,2.3-0.2,2.6-0.2c4.5-0.5,4.8-0.4,5.1,1.3c0.1,0.3,0.2,0.7,0.2,0.8
	c0,0.1,0.1,0.3,0.1,0.4c0,0.1,0.1,0.4,0.1,0.7c0.1,0.6,0.1,0.6-0.9,0.8c-0.3,0-0.7,0.1-0.9,0.2c-0.2,0.1-0.4,0.1-0.7-0.1
	c-0.2-0.1-0.3-0.2-0.2-0.2c1.2-0.2,2.5-0.5,2.5-0.6c0-0.1-0.1-0.1-0.1-0.1c-0.1,0-0.7,0.2-1.3,0.3l-1.2,0.2l-0.7-0.4
	c-0.4-0.2-1-0.4-1.2-0.4c-0.4-0.1-0.4,0,0.4,0.4c3.4,1.5,5.8,5.5,5.6,9.3l0,0.8l0-1c-0.1-4.4-3.2-8.5-7.1-9.5
	c-1.4-0.4-4.7-0.3-5.1,0.1c-0.1,0.1-0.4,0.2-0.7,0.3c-0.3,0.1-0.7,0.3-0.9,0.4c-0.2,0.1-0.5,0.4-0.9,0.7c-0.3,0.2-0.6,0.5-0.6,0.5
	c0,0.2,0,0.4-0.1,0.4c-0.1,0-0.1-0.1,0-0.2c0.1-0.1,0.1-0.2,0-0.2c-0.1,0-0.2,0.1-0.3,0.3c-0.1,0.2-0.1,0.2,0,0.2
	c0.1-0.1,0.1,0,0.1,0c0,0.1-0.1,0.1-0.2,0.1c-0.1-0.1-0.2,0-1,1.1c-0.5,0.7-1.2,2.2-1.3,2.8c-0.3,1.2-0.4,2.1-0.4,2.5
	c0,0.4,0,0.5-0.4,0.5c-0.2,0-0.3,0-0.3,0.1c0,0.1,0.2,0.1,0.4,0.1c0.2,0,0.3,0.1,0.3,0.3c0,0.2-0.1,0.3-0.2,0.3
	c-0.1,0-0.3,0.1-0.3,0.1c0,0.1,0.1,0.1,0.2,0.1c0.2,0,0.3,0.1,0.3,0.2c0,0.1-0.1,0.2-0.2,0.2c-0.1,0-0.2,0.1-0.2,0.1
	s0.1,0.1,0.3,0.1c0.2,0,0.3,0,0.3,0.2c0,0.1,0,0.2-0.2,0.2c-0.1,0-0.3,0.1-0.3,0.2c0,0.1,0,0.1,0.2,0.1c0.2,0,0.3,0,0.4,0.1
	c0,0.1,0,0.1-0.2,0.1c-0.1,0-0.3,0.1-0.3,0.1c-0.1,0.1,0,0.1,0.2,0.1c0.2,0,0.3,0,0.4,0.1c0,0.1,0,0.2-0.2,0.2
	c-0.2,0-0.3,0.1-0.3,0.1c0,0.1,0.1,0.1,0.4,0.1c0.3-0.1,0.3,0,0.3,0.1c0,0.1-0.2,0.2-0.3,0.2s-0.3,0.1-0.3,0.1
	c-0.1,0.1,0,0.1,0.3,0.1c0.8-0.1,0.8,0.6,0,0.8c-0.4,0.1-0.4,0.1-0.5-0.5c-0.2-1-0.8-4.4-1.1-6.5c-1-6.2-1.2-7.6-1.3-7.8
	c-0.1-0.2-2-1-2.4-1c-0.1,0-0.1,4.1-0.1,13.3v13.3l0.5-0.1c0.7-0.1,0.8,0.1,0.1,0.3c-0.4,0.1-0.6,0.2-0.6,0.3c0,0.1,0.1,0.2,0.3,0.1
	c1-0.2,2.6-0.4,2.4-0.2c0,0-0.7,0.2-1.4,0.5c-1,0.3-1.3,0.4-1.3,0.6c0,0.2,0,0.2,0.2,0.1c1.1-0.5,4.9-1.2,5.2-1
	c0.1,0.1,0.1,0.1-0.1,0.1c-0.2,0-5.2,1.5-5.3,1.6c-0.2,0.2,0.5,0.1,3.2-0.7c1.4-0.4,8.9-2.3,10.5-2.6c0.5-0.1,1.5-0.4,2.3-0.5
	c0.7-0.2,1.3-0.3,1.3-0.4c0-0.1,0.3-0.1,0.7-0.1c0.4,0,0.9-0.1,1-0.1c0.3-0.1,0.3-0.1-0.1-0.1c-0.2,0-0.4,0-0.4,0
	c0-0.1,1.1-0.3,1.6-0.4c0.2,0,0.5-0.1,0.7-0.1c0.2,0,0.4-0.1,0.6-0.1c0.2,0,0.3-0.1,0.3-0.1c0-0.2-1.1,0-2.6,0.3
	c-2.7,0.6-4.4,1-5,1.1l-0.6,0.1l0.6-0.2c0.3-0.1,1.5-0.5,2.6-0.7c2.1-0.5,2.1-0.5,1.9-0.7c-0.1,0-0.1,0-0.1,0c0,0.1-0.1,0.1-0.2,0.1
	s-0.4,0.1-0.7,0.1c-1.4,0.3,1.5-0.9,4.1-1.8c0.9-0.3,1.7-0.7,2.2-1c0.3-0.2,0.3-0.2,0.9,0.4c3.3,3.2,10.5,3,15.7-0.4l0.3-0.2
	l0.5,0.6c0.6,0.7,1.5,1.3,1.8,1.2c0.2,0,0.3,0,0.5,0.3c0.1,0.2,0.4,0.6,0.6,1c0.5,0.8,0.6,0.7-0.7,0.6C47,83,27.3,83,26.9,83.3
	c-0.2,0.1-0.7,0.3-1,0.3c-2.8,0.4-12,2.6-15.9,3.8c-3.2,1-1.6,0.7,4.5-1c1.1-0.3,2.9-0.7,4-1c1.1-0.2,2.6-0.6,3.4-0.8
	c0.8-0.2,1.7-0.4,2.1-0.5c1.2-0.2,2.5-0.5,2.6-0.6c0.1-0.1,0.1-0.1,0.1,0c0,0.1-0.8,0.9-0.9,0.9c-1.1,0.1-1.9,0.2-2.5,0.4
	c-0.3,0.1-1.1,0.3-1.6,0.4C18.6,85.9,10.7,88,11.5,88c0,0,1.7-0.4,3.7-0.9c2-0.5,4.3-1,5.2-1.2c0.9-0.2,2.2-0.5,3-0.7
	c0.8-0.2,1.6-0.3,1.8-0.3h0.4l-0.3,0.3c-0.2,0.2-0.5,0.3-1.1,0.4c-0.5,0.1-1.3,0.2-1.8,0.4c-0.5,0.1-1,0.2-1.2,0.2
	c-0.4,0-5.7,1.3-5.7,1.4c0,0,1-0.1,2.1-0.4c6.5-1.4,7.3-1.5,6.7-1.1c-0.1,0.1-0.4,0.3-0.5,0.4c-0.3,0.3-0.4,0.3-0.3,0.1
	c0.1-0.2,0.1-0.2-1.3,0.1c-2.7,0.6-6.7,1.5-6.3,1.5c0.1,0,0.8-0.1,1.6-0.3c4.7-1,5.9-1.2,5.9-1c0,0.3-0.6,0.5-1.8,0.8
	c-2.2,0.5-4.6,1.1-4.4,1.1c0.1,0,0.5,0,0.9-0.1c1.8-0.4,4.2-0.8,4.3-0.7c0.3,0.3-0.5,0.7-1.7,0.9c-1.3,0.3-1.9,0.5-1.6,0.5
	c0.1,0,0.6-0.1,1-0.2c0.5-0.1,1-0.2,1.1-0.1l0.3,0l-0.4,0.4c-0.2,0.2-0.8,0.8-1.3,1.4c-0.5,0.5-1.7,1.8-2.6,2.9c-1,1.1-1.8,2-1.9,2
	c-0.1,0.1-0.7,0.7-1.4,1.5s-1.5,1.6-1.8,1.9c-0.9,0.9-0.8,0.7-0.8,3.8c0,1.5,0,2.8,0,2.9c0,0.1,0.3,0.1,0.8,0.1
	c1.3,0,1.2-0.1,1.2,1.8c0,2.7,0.4,3.4,2,3.6c1.6,0.2,104.4,0.1,104.8-0.1c1-0.6,1.3-1.2,1.3-3.4V106h1h1v-2.9v-2.9l-1.8-2
	c-2.2-2.4-3.3-3.6-6.2-6.8c-1.2-1.3-2.2-2.4-2.2-2.4c0,0,0.8,0.1,1.8,0.2c2.7,0.4,2.1,0.2-1-0.4c-1-0.2-2-0.7-1.7-0.9
	c0.1-0.1,2.7,0.4,4.7,0.8c0.6,0.1,1.2,0.2,1.2,0.2c0,0-0.3-0.1-0.6-0.2c-0.4-0.1-1-0.2-1.3-0.3c-0.4-0.1-1.5-0.3-2.5-0.5
	c-1.3-0.2-1.9-0.4-2.2-0.6l-0.4-0.3l0.4,0c0.4,0,1.5,0.1,5.8,1c2.5,0.5,3.3,0.6,2.6,0.4c-0.2-0.1-0.8-0.2-1.4-0.3
	c-0.6-0.1-1.7-0.4-2.6-0.6c-1.9-0.4-3.2-0.7-3.9-0.8c-0.8-0.1-1.3-0.3-1.6-0.6l-0.3-0.3l0.4,0.1c0.2,0,1.4,0.3,2.5,0.5
	c1.2,0.2,2.4,0.5,2.7,0.5c0.4,0.1,1.4,0.3,2.4,0.5c0.9,0.2,1.7,0.3,1.8,0.3c0.1-0.1-2.7-0.8-4.3-1.1c-0.8-0.2-2-0.4-2.5-0.5
	s-1.4-0.3-1.9-0.4c-1.2-0.2-1.3-0.2-1.7-0.6c-0.3-0.3-0.5-0.6-0.2-0.4c0.1,0.1,0.3,0.2,0.5,0.2c0.5,0.1,4.7,1,7,1.5
	c2.1,0.4,4.4,1,6.2,1.5c1.8,0.5,1.4,0.3-0.6-0.3c-1-0.3-2-0.6-2.2-0.7c-1.2-0.4-9.1-2.1-10.7-2.3c-0.5-0.1-1.3-0.7-1.3-1
	c0-0.4-0.4-0.4-12.6-0.4c-13.1,0.1-12,0.1-11.6-0.3c0.1-0.1,0.4-0.5,0.6-0.8c0.4-0.6,0.5-0.7,0.9-0.7c0.5,0,2-1.2,2-1.6
	c0-0.2,0.3-0.1,1,0.3c3.3,2,9.3,3.1,11.7,2.1c0.1-0.1,0.5-0.2,0.9-0.3c0.8-0.3,2-1,2.7-1.7c0.6-0.5,0.6-0.6,0.9-0.3
	c0.3,0.2,1.1,0.6,4,1.6c2.5,0.9,3.2,1.2,2,1.1c-1.3-0.2-1.3-0.2,0,0.2c2.8,0.7,5.4,1.5,4.1,1.2c-0.8-0.1-3.3-0.6-4.2-0.8
	c-0.5-0.1-0.9-0.2-1-0.1c-0.1,0-0.2,0-0.2,0c0-0.1-0.2-0.1-0.5,0c-0.3,0-0.6,0-0.8-0.1c-0.3-0.1-0.3-0.1-0.1,0
	c0.1,0.1,0.3,0.2,0.4,0.2c0.3,0,0.7,0.1,2,0.4c0.7,0.2,2.6,0.6,4.2,0.9c3.6,0.8,3.7,0.8,6.3,1.5c1.2,0.3,2.6,0.7,3.1,0.8
	c0.5,0.1,1.6,0.4,2.5,0.6c0.8,0.2,1.5,0.4,1.5,0.3c0-0.2-1.1-0.6-3.5-1.2c-1-0.3-1.2-0.5-0.4-0.4c0.7,0.1,3.2,0.6,3.6,0.7
	c0.5,0.2,0.2-0.2-0.4-0.5c-1.1-0.4-1.1-0.5-0.2-0.4c0.9,0.1,0.9,0.1,0.9-0.2c0-0.2-0.1-0.3-0.1-0.4c-0.1,0-0.1-0.1,0-0.1
	c0.1,0,0.1-2.7,0.1-13.1V59l-0.7,0.2c-0.9,0.3-0.8,0.1-1.2,2.7c-1.1,7.1-2.2,13.4-2.3,12.8c0-0.1-0.2-0.2-0.4-0.3
	c-0.5-0.2-0.6-0.5,0-0.4c0.2,0.1,0.4,0.1,0.5,0c0.2-0.1,0-0.3-0.4-0.3c-0.2,0-0.3-0.1-0.3-0.1c0-0.1,0.2-0.1,0.4-0.1
	c0.2,0,0.4,0,0.4-0.1c0-0.2-0.1-0.3-0.3-0.2c-0.1,0.1-0.2,0.1-0.1,0c0-0.1,0-0.1,0-0.1c-0.1,0-0.1-0.1-0.1-0.2c0-0.1,0-0.2,0.2-0.1
	c0.3,0.2,0.5,0.2,0.5-0.1c0-0.1-0.1-0.2-0.3-0.2c-0.2,0-0.3-0.1-0.3-0.1s0.1-0.1,0.3-0.1c0.2,0,0.3-0.1,0.3-0.2
	c0-0.1-0.1-0.2-0.3-0.2c-0.2,0-0.2,0-0.1,0.1c0.2,0.1,0.2,0.1,0,0.1c-0.1,0-0.2-0.1-0.2-0.3c0-0.2,0.1-0.3,0.3-0.2
	c0.2,0,0.3,0,0.3-0.1c0-0.1-0.2-0.1-0.4-0.1c-0.3,0-0.3,0-0.3-0.2c0-0.1,0.2-0.2,0.4-0.2s0.3-0.1,0.3-0.1c0-0.1-0.1-0.1-0.3-0.1
	c-0.2,0-0.3-0.1-0.3-0.3c0-0.3,0-0.3,0.4-0.2c0.2,0,0.4,0,0.4-0.1c0-0.1-0.2-0.1-0.4-0.2c-0.4,0-0.4-0.1-0.4-0.5
	c0-0.4-0.1-1-0.3-2.2c-0.1-0.6-0.8-2.1-1.3-2.8c-0.2-0.3-0.4-0.6-0.3-0.7c0-0.1,0-0.1-0.1,0c-0.1,0.1-0.1,0-0.1-0.1
	c0-0.1-0.1-0.2-0.2-0.3c-0.1,0-0.2-0.1-0.1-0.2c0-0.1-0.2-0.3-0.5-0.6c-0.3-0.3-0.7-0.6-0.9-0.8c-1.7-1.8-5.8-2.2-8.9-0.8
	c-2.9,1.3-5.1,4.3-5.7,8c-0.6,3.4-0.4,5,1,7.1c0.2,0.4,0.1,0.6-0.1,0.3c-1.9-2.4-1.7-7.6,0.4-11.7c0.3-0.6,1.3-1.8,1.9-2.3
	c0.9-0.7,1.5-1.3,1.3-1.2c-0.6,0.3-1.9,1.3-1.9,1.4c0,0.1-0.1,0.2-0.3,0.3c-0.2,0.1-0.4,0.3-0.4,0.4c-0.1,0.2-0.2,0.2-0.4,0.1
	c-0.2,0-0.3,0-0.4,0.1c0,0.1,0,0.1,0.2,0.1c0.3,0,0.3,0.2-0.2,0.9c-0.3,0.3-0.5,0.8-0.6,1s-0.2,0.5-0.3,0.5
	c-0.2,0.2-0.5,1.3-0.8,2.9c-0.1,0.4-0.1,0.4-0.1,0.1c0-0.2,0.1-0.7,0.2-1.2c0.1-0.5,0.1-0.9,0.1-1.1c-0.1-0.2,0-0.2,0.1-0.1
	c0.1,0.1,0.1,0.1,0.2-0.2c0-0.2,0.1-0.4,0.2-0.4c0.2-0.1,0.3-0.7,0.1-0.7c-0.1,0.1-0.1,0-0.1-0.1c0-0.1,0.1-0.2,0.2-0.1
	c0.2,0,0.5-0.3,0.3-0.4c-0.1-0.1-0.2-0.1-0.3,0c-0.1,0,0,0,0-0.1c0.1-0.1,0.3-0.2,0.4-0.2c0.1,0,0.2,0,0.2-0.1
	c0-0.1-0.1-0.2-0.2-0.2s-0.2-0.1-0.2-0.1c0-0.2,0.4-0.3,0.6-0.1c0.2,0.1,0.2,0.1,0.2,0c0-0.1-0.2-0.2-0.4-0.2
	c-0.4-0.1-0.4-0.4,0-0.4c0.2,0,0.3,0,0.2-0.1c-0.1-0.1-0.2-0.1-0.3-0.1c-0.1,0.1-0.1-0.2,0-0.4c0.1-0.2,0.2-0.2,0.8-0.2
	c0.4,0,0.7,0,0.7-0.1c0.1-0.1-0.2-0.1-0.7-0.1c-0.7,0-0.8,0-0.7-0.2c0-0.1,0.1-0.2,0.2-0.2c0.5,0.1,1.9,0.2,1.9,0.1
	c0-0.1-0.4-0.1-1-0.2c-0.5,0-1-0.1-1-0.1c-0.2-0.2,0.2-0.4,0.6-0.4l0.4,0l-0.4-0.1c-0.3-0.1-0.4-0.2-0.4-0.3c0.1-0.2,0.1-0.2,0.5,0
	c0.3,0.1,0.5,0.1,0.5,0.1c0,0-0.2-0.1-0.4-0.2c-0.3-0.1-0.5-0.2-0.6-0.2c-0.2-0.2,0.1-0.2,0.6-0.1c0.6,0.2,2.5,0.4,2,0.2
	c-0.2-0.1-0.5-0.1-0.7-0.1c-0.4,0-1.6-0.3-1.8-0.4c-0.2-0.2,0.1-0.4,0.4-0.2c0.2,0.1,0.5,0.2,0.7,0.2c0.3,0.1,0.2,0-0.1-0.1
	c-0.8-0.3-0.8-0.4-0.7-1.3c0.3-1.5,0.5-1.6,2.7-1.4c3.1,0.2,9.4,0.8,14,1.3l0.6,0.1l-0.3-0.3c-0.2-0.2-0.5-0.3-0.9-0.4
	c-0.7-0.1-8-0.6-11.4-0.8c-1.2-0.1-2.2-0.2-2.3-0.2c-0.1-0.1,6.5,0.1,8.4,0.2l0.7,0.1l-0.5-0.3c-0.7-0.4-2.3-0.7-4-0.7
	c-0.8,0-2.5-0.1-3.9-0.2c-3.4-0.2-3.8,0.1-3.7,1.8c0.1,1.1-0.2,2-0.9,3.1c-0.3,0.4-0.5,0.9-0.5,1.2c0,0.3-0.2,0.6-0.2,0.8
	c-0.1,0.2-0.3,0.9-0.4,1.6c-0.1,0.7-0.5,2.2-0.8,3.3c-0.5,2-0.7,2.8-0.4,2.5c0.1-0.1,0.1-0.1,0.1,0c-0.1,0.2-0.3,0.2-0.4-0.1
	c-0.1-0.1-0.3-0.6-0.6-1c-0.7-1.1-3.6-7.3-3.6-7.6c0-0.1,0.2-0.4,0.4-0.8c0.5-0.8,0.5-1-0.5-2.4c-0.8-1.3-1.2-2.1-2.9-6.6
	c-2.1-5.6-3.3-7.5-6.2-9.6c-1.4-1-6.4-3.5-7.4-3.7c-0.2,0-0.5-0.2-0.7-0.3c-0.3-0.2-1-0.6-1.1-0.6c0,0-0.1,0.8,0,1.8
	c0,4.9-0.1,16.6-0.2,17.8c-0.5,5-1.8,12.7-2.2,12.9c-0.2,0.1-0.2-0.2,0.8-7.2c0.7-5.2,0.9-8.8,0.8-13.4c-0.1-2.4,0-4,0.1-6.3
	c0.1-1.7,0.2-3.9,0.2-4.9c0-1.8,0.2-2.4,0.3-1.4c0.1,0.4,0.1,0.4,0.1-0.1c0-0.3,0.1-0.6,0.3-0.7c0.2-0.2,0.2-0.4,0.2-1.3
	c0-0.9,0-1.1,0.3-1.3c0.2-0.1,0.4-0.5,0.5-0.7c0.2-0.3,0.3-0.5,0.6-0.5c1.8-0.4,3.4-6.2,2.4-8.6c-0.1-0.1-0.2-0.6-0.2-1
	c-0.1-0.6-0.2-0.8-0.5-1.1l-0.4-0.4l0.2-0.4c0.3-0.5,0.3-1.5,0-1.9c-0.1-0.2-0.2-0.4-0.1-0.5c0.4-0.6-0.1-2-0.8-2
	c-0.3,0-0.4-0.1-0.6-0.5c-1.3-2.5-2-3.6-3.2-5c-0.3-0.4-0.5-0.7-0.5-0.8c0.6-0.2,2.7,2.7,3.7,5c0.7,1.6,1.2,1.7,0.6,0.1
	c-1.3-3.8-6.2-9.1-7.8-8.3c-0.2,0.1-0.5,0-1.1-0.2C71,6,67.3,5.7,64.5,6.2 M71.1,6.9c1.7,0.4,3.7,1.1,3.9,1.5c0.2,0.4,0,0.4-1,0
	C73.3,8.2,72.7,8,72.5,8c-0.2,0-0.8-0.2-1.4-0.4C68.7,7,65.9,6.9,64,7.5c-0.8,0.2-1.6,0.4-2.2,0.5c-0.2,0-0.7,0.2-1,0.4
	c-0.6,0.3-0.9,0.2-0.7-0.1c0.3-0.4,2.6-1.3,4.5-1.6C65.9,6.5,69.7,6.6,71.1,6.9 M76.1,8.2c0.9,0.6,2.4,1.9,2.2,2
	c-0.1,0-0.3-0.1-0.6-0.3c-0.3-0.2-0.5-0.3-0.6-0.2c-0.1,0.1-0.2,0.1-0.2,0c0-0.1,0-0.1,0-0.1c0.4,0.1,0-0.3-0.7-0.8
	C74.8,7.8,74.7,7.2,76.1,8.2 M59.8,8c0,0.1-0.1,0.2-0.2,0.2c0,0-0.7,0.6-1.6,1.4c-1.5,1.4-1.7,1.5-1.7,0.9c0-0.3,1.5-1.8,2.4-2.3
	C59.6,7.8,59.9,7.7,59.8,8 M68.2,8.3c0.3,0.1,0.4,0.5,0.2,0.5c-0.1,0-0.1,0-0.1,0.1c0.1,0.2-0.2,0.3-0.9,0.2l-0.6,0L67.5,9l0.6-0.1
	l-0.7,0c-0.8,0-0.9-0.1-0.8-0.4C66.6,8.2,67.6,8,68.2,8.3 M65.9,8.6c0,0.1-0.2,0.2-0.5,0.2c-2.3,0-5.6,1.4-7.2,2.9
	c-1.7,1.7-2.2,3.2-2.5,7.3l-0.1,1L55.1,20c-0.4,0-0.7,0.1-0.9,0.3c-0.3,0.3-0.4,0.3-0.4,0c0-0.1-0.1-0.4-0.2-0.7
	c-0.1-0.2-0.1-0.5-0.1-0.6c0-0.1,0.1-0.5,0.2-0.9c0.3-2.6,3.4-6.7,6.2-8.3C61.9,8.9,66.2,7.9,65.9,8.6 M72.5,8.9
	c3.1,0.9,5.3,2.6,7.1,5.3c0.8,1.2,1.7,3.3,1.7,3.8c0,0.3,0.1,0.6,0.2,0.9c0.2,0.4,0.2,0.4-0.1,0.8c-0.1,0.2-0.2,0.5-0.2,0.6
	c0,0.3-0.1,0.3-0.4,0c-0.2-0.1-0.6-0.2-0.9-0.3l-0.5-0.1l0-0.7c-0.2-4.9-1.6-7.5-4.8-9.1c-1.4-0.7-3.7-1.3-5-1.3
	c-0.3,0-0.5-0.1-0.6-0.2C68.8,8.2,70.9,8.5,72.5,8.9 M65.9,9.4c0.2,0.2,0.5,0.3,0.9,0.4l0.6,0.1l0,2.2c0,1.2,0,2.6,0.1,3
	c0.1,0.7,0,0.7-0.1,0c0-0.1-0.2-0.3-0.3-0.3c-0.2,0-0.2,0,0-0.1c0.1,0,0.2-0.1,0.2-0.1c0-0.2-0.3-0.4-1.3-0.5
	c-1.1-0.2-0.7-0.2,0.7,0c0.5,0.1,0.6,0,0.5-0.1c0-0.1-0.5-0.2-1.4-0.3c-0.7-0.1-1.6-0.2-1.9-0.3c-0.3-0.1-0.4-0.2-0.2-0.1
	c1.3,0.2,4,0.5,3.3,0.3c-0.1,0-0.2-0.1-0.2-0.2c0-0.1-0.2-0.1-0.5-0.1c-0.6,0-3.1-0.4-3.4-0.5c-0.2-0.1-0.2-0.1,0,0
	c0.2,0,0.6,0.1,1.1,0.1l0.8,0.1l-0.7-0.2c-0.4-0.1-0.9-0.3-1.1-0.4c-0.3-0.2-0.3-0.2,0-0.1c2.2,0.5,3.5,0.8,3.8,0.8
	c0.3,0,0.1-0.1-0.5-0.2c-1-0.2-3.2-0.7-3.3-0.8c-0.2-0.2,0.1-0.1,1.2,0.1c0.6,0.2,1.4,0.3,1.7,0.3c0.5,0.1-0.5-0.2-2.3-0.6
	c-0.7-0.2,0-1,1.4-1.8c0.8-0.5,0.8-0.6,0-0.2c-0.3,0.2-0.8,0.4-1.1,0.5c-0.2,0.1-0.4,0.3-0.4,0.3c0,0.1-0.1,0.2-1.3,0.6
	c-0.8,0.3-1,0.1-0.2-0.1c0.3-0.1,0.6-0.3,0.6-0.3c0-0.1,0-0.1-0.1,0c-0.1,0-0.1,0-0.2-0.1c-0.1-0.1-0.1-0.1-0.2,0
	c-0.1,0.1-0.1,0.1-0.1,0c0-0.4-2,0.7-3.1,1.7c-1.3,1.2-1.3,1.4-1.4,4.7c0,1.6-0.1,3.1-0.2,3.4c-0.1,0.4-0.1,0-0.1-1.1
	c0.1-2.1-0.1-1.7-0.4,0.8c-0.1,1-0.3,2-0.3,2.2l-0.1,0.3l-0.1-0.4c-0.2-0.8,0-5.7,0.3-6.8c0.9-3.5,3.7-5.6,8.5-6.4
	c0.2,0,0.3-0.1,0.3-0.1C65.6,9.1,65.8,9.2,65.9,9.4 M71,9.5c6.1,1.6,8.1,4.6,7.6,11.8c-0.1,1.8-0.2,1.6-0.5-0.9
	c-0.1-1.1-0.3-2.4-0.4-2.9s-0.2-1.4-0.3-1.9c-0.2-2.3-1.9-4-4.6-4.8c-0.8-0.2-1.4-0.3-0.7-0.1c0.2,0.1,1,0.6,1.2,0.7
	c0,0-0.2,0-0.4-0.2c-1.1-0.6-1.2-0.6-0.7,0c0.4,0.4,0,0.2-0.4-0.3c-0.2-0.2-1.2-0.8-1.6-1c-0.6-0.3-0.6-0.2-0.1,0.2
	c0.9,0.5,2.3,1.9,2.1,2.1c0,0-0.7,0.2-1.3,0.3C68.2,12.9,68,13,68.1,13c0,0,3-0.4,3.8-0.6c0.2-0.1,0.3,0,0.1,0
	c-0.1,0.1-0.7,0.2-1.4,0.4c-0.7,0.1-1.4,0.3-1.6,0.4c-0.5,0.2,0.7,0,1.7-0.2c1.4-0.3,1.8-0.3,0.7,0c-1.3,0.3-2.8,0.6-3.1,0.5
	c-0.1,0-0.2,0-0.2,0.1c0,0.2,1.1,0.2,2.3,0c1.7-0.3,1.9-0.3,1-0.1c-0.5,0.1-1.4,0.3-2.1,0.4c-0.7,0.1-1.2,0.2-1.3,0.2
	c-0.2,0.2,0.3,0.2,0.7,0.2c0.3-0.1,0.7-0.1,0.9-0.1c0.2,0,0,0.1-0.6,0.2c-1.1,0.2-1.4,0.4-0.7,0.4l0.4,0l-0.4,0.1
	c-0.3,0.1-0.4,0.1-0.4,0.8c0,0.4-0.1,0.7-0.1,0.7c0,0,0-1.4-0.1-3.2c0-3.6-0.1-3.2,0.8-3.4c0.2,0,0.5-0.2,0.5-0.2
	C69.1,9.1,69.8,9.2,71,9.5 M56.1,11.3c0,0.1-0.3,0.7-0.8,1.4c-0.5,0.7-1.1,1.7-1.4,2.2c-0.3,0.5-0.5,1-0.5,1c0,0-0.2,0.3-0.3,0.6
	c-0.3,0.7-0.5,0.9-0.4,0.3C53.1,14.9,55.7,10.6,56.1,11.3 M70.6,11.7C70.3,11.8,70.3,11.8,70.6,11.7c0.1,0.1,0.3,0.1,0.5,0
	C71.4,11.6,71.1,11.6,70.6,11.7 M71.2,11.9c0,0-0.7,0.2-1.4,0.3c-0.7,0.2-1.3,0.3-1.2,0.3c0.3,0,2.6-0.4,3-0.6l0.3-0.1l-0.3,0
	C71.4,11.9,71.3,11.9,71.2,11.9 M77.5,18.8c0,2.2-0.1,1.4-0.2-1.1c-0.1-1.1,0-1.4,0.1-1.1C77.4,16.8,77.5,17.8,77.5,18.8 M53.1,17.5
	c0.1,0.3-0.4,1.1-0.6,1.1c-0.3-0.1-0.5-0.6-0.3-1C52.5,17.2,53,17.2,53.1,17.5 M82.6,17.4c0.2,0.2,0.2,0.8,0,1.1
	c-0.2,0.3-0.6-0.1-0.7-0.7C81.8,17.4,82.3,17.1,82.6,17.4 M52.9,19.7c0.4,0.4-0.1,1.3-0.5,1c-0.4-0.3-0.4-1,0-1.1
	C52.6,19.5,52.7,19.5,52.9,19.7 M82.8,19.8c0.2,0.2,0.2,0.5-0.2,0.8c-0.3,0.2-0.3,0.2-0.5,0c-0.1-0.1-0.2-0.2-0.3-0.3
	c-0.1,0-0.1-0.2,0.1-0.5C82.1,19.6,82.6,19.6,82.8,19.8 M54.7,21.5c-0.1,0.9,0,1.9,0.2,1.5c0.1-0.2,0.1-0.4,0.1-0.5
	c0-0.1,0-0.2,0.1-0.2c0.5,0,0.1,1-0.7,1.6l-0.6,0.4l0.1-1.1c0.1-1.3,0.3-2,0.5-2.3C54.7,20.6,54.8,20.8,54.7,21.5 M80.8,21.3
	c0.3,0.6,0.4,2.8,0.1,2.6c-0.1-0.1-0.5-0.3-0.7-0.5c-0.5-0.2-0.5-0.3-0.4-0.6c0-0.2,0.1-0.4,0.1-0.5c0-0.2,0.3-0.3,0.4-0.1
	c0,0.1,0.1-0.2,0.1-0.7C80.2,20.6,80.4,20.5,80.8,21.3 M81.8,21.6c0.6,0.4,0.7,1,0.7,5l0,1.5l-0.4,0.1c-0.5,0.2-0.7,0-0.6-0.5
	c0.2-0.8,0.1-5.4-0.1-6.1C81.2,21.4,81.3,21.4,81.8,21.6 M83.5,22.8c0.4,0.7,0.3,3.6-0.1,4.3c-0.5,1.1-0.6,0.9-0.6-2.1
	C82.8,21.9,82.9,21.6,83.5,22.8 M64.2,23c-0.4,0.1-1.4,0.1-2.3,0.1c-0.9,0-2,0.1-2.5,0.1l-0.8,0.1l0.5,0.1l0.5,0.1l-0.6,0
	c-0.3,0-0.6,0.1-0.6,0.1c0,0.2,3.1,0.3,4.4,0.1l1.3-0.2l-2.2,0c-1.2,0-1.8-0.1-1.3-0.1c2-0.1,4.7-0.3,4.7-0.4c0-0.2,10.3,0,11.9,0.2
	c2.9,0.4,4.7,1.8,3,2.3c-0.7,0.2-23.4,0.3-24.7,0.1c-1.3-0.2-1.7-0.8-1-1.3c1.6-1.1,3.7-1.4,9.4-1.4C64.8,22.9,64.8,22.9,64.2,23
	 M66.1,23c0.1,0,0.3,0,0.4,0c0.1,0,0-0.1-0.2-0.1S66,23,66.1,23 M70.8,23.1l-0.7,0.1l1,0.1c0.6,0,1.5,0.1,2.2,0.1
	c0.7,0,1.1,0,1.1,0.1c0,0-0.9,0.1-1.9,0.1c-1.5,0-1.7,0-1.1,0.1c1,0.2,3.6,0.2,4.5,0.1l0.8-0.1l-0.5-0.2
	C75.2,23.2,72.3,22.9,70.8,23.1 M63.3,23.9c0.1,0,0.3,0,0.4,0c0.1,0,0-0.1-0.2-0.1S63.1,23.9,63.3,23.9 M64.3,24.2
	c0.1,0,0.4,0,0.5,0c0.1,0,0-0.1-0.3-0.1C64.3,24.2,64.1,24.2,64.3,24.2 M61.5,24.7c0.1,0,0.4,0,0.5,0c0.1,0,0-0.1-0.3-0.1
	C61.5,24.7,61.4,24.7,61.5,24.7 M62.7,24.7c0.1,0,0.4,0,0.5,0c0.1,0,0-0.1-0.3-0.1C62.7,24.7,62.6,24.7,62.7,24.7 M72.5,24.7
	c0.2,0,0.6,0,0.8,0c0.2,0,0,0-0.4,0C72.5,24.7,72.3,24.7,72.5,24.7 M60.5,25.1c0.4,0,1.1,0,1.5,0c0.4,0,0.1,0-0.7,0
	C60.4,25,60,25.1,60.5,25.1 M73.5,25.1c0.3,0,0.7,0,1,0c0.3,0,0.1,0-0.5,0S73.2,25.1,73.5,25.1 M58.7,25.2c0.2,0,0.5,0,0.7,0
	c0.2,0,0,0-0.4,0C58.6,25.2,58.4,25.2,58.7,25.2 M75.8,25.2c0.1,0,0.4,0,0.5,0c0.1,0,0-0.1-0.3-0.1C75.7,25.1,75.6,25.2,75.8,25.2
	 M77.2,25.2c0.1,0,0.3,0,0.4,0c0.1,0,0-0.1-0.2-0.1S77.1,25.2,77.2,25.2 M54.7,25.8l0.4,0.1l0.2,1.6c0.1,0.9,0.2,2,0.3,2.4l0.1,0.8
	l-0.3-0.7c-0.2-0.4-0.4-0.9-0.5-1c-0.3-0.6-0.1,1.6,0.3,3.1c0,0.2,0,0.2-0.1-0.1c-0.4-1-0.9-3.6-1.1-5.9c-0.1-0.9-0.1-0.9,0.2-0.6
	C54.2,25.6,54.5,25.8,54.7,25.8 M81,28c-0.2,1.6-0.5,3.2-0.8,4L80,32.5L80,32c0.2-1.3,0.3-1.9,0.3-2.3l0-0.4l-0.2,0.6
	c-0.1,0.3-0.3,0.5-0.3,0.5c-0.1,0-0.2,0-0.2,0.2c-0.1,0.2-0.1,0.1-0.1-0.3c0-0.3,0.1-0.9,0.2-1.4c0.3-2.5,0.3-2.7,0.9-3.1l0.5-0.3
	l0,0.6C81.2,26.2,81.1,27.1,81,28 M84.3,26.3c0.1,0.3-0.1,0.6-0.3,0.5c-0.1-0.1-0.2-0.6-0.1-0.7C84.1,25.9,84.3,26,84.3,26.3
	 M56.3,27.9c0.5,2.2,0.8,4.8,0.5,4.2c-0.5-0.8-1.5-5.5-1.2-5.8C55.7,26.2,56.1,26.9,56.3,27.9 M79.3,28.1c-0.2,2-0.6,3.4-1.1,4.1
	c-0.2,0.3-0.2,0,0-1.3c0.3-2.5,0.6-3.7,1.1-4.3C79.5,26.2,79.5,26.4,79.3,28.1 M59.1,27.7c0.3,0.1,0.8,0.3,1.3,0.4l0.8,0.2L60,28.3
	c-1.3-0.1-1.7-0.2-1.5-0.6C58.6,27.5,58.6,27.5,59.1,27.7 M51.4,27.8c0,0.1-0.1,0.1-0.1,0.1c-0.1,0-0.1,0-0.1,0.1
	c0,0.1,0,0.1,0.1,0.1c0.2,0,0.3,0.6,0.1,0.8c-0.1,0.1-0.1,0-0.1-0.1c0-0.1,0-0.3-0.1-0.3c-0.1-0.1-0.2-0.5-0.1-0.6
	C51.2,27.6,51.4,27.6,51.4,27.8 M76.5,27.9c0,0.3-0.3,0.4-1.5,0.4l-1.1,0l1-0.3C76,27.6,76.5,27.5,76.5,27.9 M59.9,28.6
	c0.7,0.1,2.7,0.3,4.5,0.5l3.2,0.4l2.5-0.4c2-0.3,6-0.7,6.6-0.7c0.4,0,0.2,1.3-0.3,1.5c-0.3,0.2-0.4,0.3-0.5,0.8
	c-0.2,0.8-0.6,1.9-0.8,2.1c-0.1,0.1,0-0.1,0.1-0.5c0.2-0.3,0.4-1.1,0.4-1.6c0.1-0.9,0.2-1,0.5-1.1c0.3-0.1,0.3-0.2,0.3-0.5v-0.4
	l-0.9,0.1c-2.6,0.2-4.6,0.5-6.2,0.7l-1.8,0.3l-2.2-0.3c-1.2-0.2-2.3-0.3-2.5-0.4c-0.8-0.1-2.8-0.3-3.5-0.3l-0.8,0l0,0.3
	c0,0.3,0,0.4,0.3,0.6c0.2,0.2,0.3,0.5,0.4,0.7c0.1,0.9,0.4,1.8,0.7,2.3c0.2,0.3,0.2,0.5,0.1,0.4c-0.3-0.2-0.8-1.3-1-2.2
	c-0.1-0.6-0.3-0.8-0.5-1.1c-0.5-0.5-0.7-1.8-0.1-1.6C58.5,28.4,59.2,28.5,59.9,28.6 M62.6,29.9c0-0.1,0-0.2,0-0.2
	c0.2,0,0.7,0.3,0.7,0.4c0,0.1,0.1,0.1,0.1,0.1c0.1,0,0.1-0.1,0.1-0.1c0-0.1,0.1-0.1,0.3-0.1c0.2,0,0.4,0.1,0.4,0.1
	c0,0.1,0,0.1,0.1,0c0.1-0.1,0.9,0.3,1.2,0.7c0.4,0.4,0.3,1.3-0.1,2.1c-0.9,1.7-3.9,1.6-4.9-0.2c-0.4-0.8-0.7-2.4-0.4-2.4
	c0.1,0,0.1-0.1,0.1-0.1c0-0.2,1.3-0.2,1.6,0c0.2,0.2,0.2,0.2,0.1,0c-0.3-0.3,0.1-0.5,0.5-0.2C62.6,30.1,62.6,30.1,62.6,29.9
	 M72.9,29.8c0.4,0,0.9,0.1,1,0.2c0.2,0.1,0.3,0.1,0.5,0c0.6-0.5,0.8,1.4,0.3,2.5c-0.2,0.3-0.3,0.7-0.3,0.8c0,0.1-0.3,0.3-0.7,0.4
	c-2.2,0.8-3.8,0.3-3.9-1.3c-0.1-0.8,0.2-1.6,0.6-1.6c0.1,0,0.1,0,0.1-0.2c0-0.1,0-0.2,0-0.1c0.3,0.2,0.5-0.3,0.2-0.5l-0.3-0.2l0.3,0
	c0.2,0,0.4,0.1,0.6,0.2c0.2,0.1,0.3,0.1,0.3,0.1c-0.1-0.2,0.1-0.4,0.3-0.3C72,29.8,72.5,29.8,72.9,29.8 M68.5,30.6
	c0,0.3,0.4,1.3,0.8,2.2c0.2,0.3,0.3,0.6,0.2,0.6c0,0-0.3-0.5-0.7-1.2c-0.7-1.4-0.7-1.3-1.4-1.4c-0.5,0-1.3,0.5-1.1,0.7
	c0.1,0.1-0.5,1.4-0.7,1.6c-0.3,0.4-0.3,0.2,0-0.3c0.3-0.5,0.6-1.2,0.6-1.7c0-0.2,0.1-0.3,0.1-0.3c0.1,0,0.1,0,0.1-0.2
	c-0.1-0.3,0-0.3,1.3-0.3C68.5,30.3,68.5,30.3,68.5,30.6 M68.8,30.8c-0.1,0.2-0.2,0.2-0.2,0.1c0-0.1,0-0.3,0.1-0.4
	c0.1-0.2,0.2-0.2,0.2-0.1C69,30.4,68.9,30.6,68.8,30.8 M68,31.9c0.1,0.1,0.4,0.6,0.6,1c1,1.9,3.1,2.6,5.6,1.8l0.8-0.3l-0.1,0.4
	c-0.4,1.6-1,3-2.1,4.4c-3.1,4.2-6.1,4.8-9,1.9c-1.8-1.8-2.9-3.5-3.6-5.5c-0.2-0.5-0.4-1-0.4-1.2c-0.1-0.2,0-0.2,0.6,0.1
	c1.7,0.8,4.5,0.6,5.2-0.3c0.5-0.5,0.7-0.9,0.7-0.9C66.3,32.3,67.5,31.4,68,31.9 M77.9,34.4l1,0l0,0.9c0,0.7,0,1,0.2,1.1
	c0.2,0.2,0.3,1,0.1,0.9c-0.3-0.1-1.1-0.5-2.2-1c-0.7-0.3-1.3-0.6-1.3-0.6c0-0.1,0.3-1.4,0.4-1.7c0-0.1,0.1-0.1,0.4,0
	C76.7,34.2,77.3,34.3,77.9,34.4 M80.1,34.8c0.1,0.8,0,1.3-0.2,1.4c-0.2,0-0.3-1.6-0.1-1.8C80,34.2,80.1,34.3,80.1,34.8 M69.6,35.9
	c0,0.2-0.3,0.4-1,0.7c-1.1,0.5-1.4,0.5-2.3-0.1c-0.3-0.2-0.6-0.4-0.7-0.4c-0.1,0-0.2-0.1-0.2-0.1c0-0.1-0.1-0.1-0.1-0.1
	c-0.2,0.1,0.3,0.7,0.9,1.1c0.7,0.5,0.7,0.5,0.2,0.3c-0.2-0.1-0.3-0.1-0.3,0c0.6,1,3.7-0.1,3.5-1.3C69.6,35.9,69.6,35.8,69.6,35.9
	 M59.4,37.8c-0.2,2.8,1.7,6.3,4.2,8c0.9,0.6,2.2,1.3,2.5,1.3c0.2,0,0.2,0,0,0.1c-0.3,0.2-0.6,0.2-0.4,0c0.1-0.1,0.1-0.1-0.2-0.1
	c-0.8,0.2-3.6-2-5-3.8c-1.4-1.9-2.2-5-1.6-6c0.3-0.5,0.1-0.6-0.3-0.1c-1.4,1.5-0.5,5.2,2,8.3c1,1.3,1,1.4,0,0.4
	c-2-2.1-3.3-4.7-3.3-6.9c0-0.5,0-0.8-0.1-0.7c0,0.1-0.4,0.5-0.8,0.8c-0.4,0.3-0.8,0.8-0.9,1l-0.2,0.4l0-0.5c0.1-0.6-0.1-0.8-0.3-0.3
	c-0.2,0.4-0.3,0.4-0.3,0c0.1-0.3-0.1-0.1-0.7,0.7c-0.1,0.2-0.1,0.2-0.1-0.1c0-0.2,0-0.3,0-0.3c-0.1,0-0.5,0.5-0.6,0.7
	c-0.1,0.2-0.1,0.2-0.1,0.1c0-0.4-0.2-0.3-0.4,0.1C53,41.3,53,41.3,53,41c-0.1-0.5-0.2-0.4-0.3,0.1c-0.1,0.4-0.3,0.5-0.3,0
	c0-0.2,0-0.2-0.1-0.1c0,0.1-0.1,0.2-0.2,0.2c-0.1,0-0.1,0.1-0.1,0.2c0,0.3-0.2,0.4-0.3,0.1c-0.1-0.2-0.1-0.2-0.4,0.3
	c-0.2,0.5-0.3,0.6-0.3,0.3c0-0.4-0.2-0.6-0.2-0.3c0,0.4-0.4,0.7-0.4,0.3c0-0.3,0-0.3-0.1-0.1c-0.1,0.1-0.1,0.3,0,0.4
	c0,0.1,0,0.1,0,0.1c-0.1-0.1-0.2,0.1-0.3,0.3l-0.2,0.4l0-0.4c0-0.2,0-0.4-0.1-0.4c-0.1,0-0.1,0.1-0.1,0.2c0,0.1,0,0.2-0.1,0.2
	c0,0-0.2,0.2-0.3,0.5L49,43.7l0.1-0.5c0.1-0.5,0.1-0.5-0.1-0.3c-0.1,0.1-0.3,0.3-0.4,0.5c-0.1,0.1-0.2,0.4-0.3,0.5l-0.1,0.3
	l-0.1-0.5L48,43.2l-0.2,0.5l-0.2,0.5l0-0.4c0-0.5-0.3-0.2-0.5,0.6L46.9,45l0-0.5l0-0.5l-0.3,0.3c-0.2,0.2-0.3,0.4-0.3,0.5
	c0,0.1,0,0.1-0.1,0c-0.1-0.2-0.4,0.2-0.6,0.8c-0.1,0.3-0.1,0.3-0.2,0.1c0-0.2-0.1-0.3-0.2-0.2c-0.3,0.1,0,0.6,1.5,4
	c1.5,3.2,2.5,5.7,2.2,5.5c-0.1,0-0.1-0.2-0.2-0.4c-0.2-0.7-3.3-6.5-4.1-7.6l-0.2-0.4l-0.1,0.4c-0.1,0.4,0,0.7,0.3,1.7
	c0.2,0.7,0.6,2,0.9,2.8c0.5,1.6,1.3,3.7,2.3,5.8c0.7,1.4,0.7,1.5,0,0.4c-1.5-2.5-3.4-6.4-4.1-8.3c-0.4-1.2-0.5-1.3-0.6-1
	c0,0.2-0.3,0.8-0.5,1.4c-0.6,1.5-0.4,2.8,0.8,5.6c0.1,0.3,0.2,0.5,0.1,0.5c-0.2-0.1-1-1.8-1.4-3.1c-0.4-1.3-0.5-1.5-0.5-1
	c0,0.2-0.1,0.7-0.3,1.2c-0.5,1.6-0.6,2.7-0.2,3.6c0.2,0.4-0.4,0.1-0.8-0.3c-0.5-0.6-0.1,0.9,0.5,1.9c0.5,0.8,0.2,0.7-0.5-0.2
	c-0.4-0.5-0.4-0.3,0,0.4c0.2,0.4,0.2,0.5-0.2,0.3c-0.2-0.1-0.5-0.4-0.6-0.6c-0.1-0.2-0.3-0.4-0.3-0.4c-0.1,0.1,0.4,1.3,0.8,1.9
	l0.5,0.7l-0.4-0.4c-0.2-0.2-0.6-0.5-0.7-0.7l-0.3-0.3l0.1,0.4c0,0.2,0.2,0.5,0.2,0.6c0.3,0.4,0.1,0.3-0.5-0.2
	c-0.8-0.8-0.5,0.1,0.4,1c0.7,0.8,1.5,1.2,4.3,2.4c0.7,0.3-0.6,0-1.8-0.5c-1.6-0.6-2.6-1.2-3.6-2.2c-0.9-0.9-0.9-0.8-0.2-2.6
	c0.3-0.7,1.1-2.7,1.7-4.5c3-8.5,4.5-10,13.8-14.2c1-0.4,2.5-1.1,3.5-1.6c2.3-1.1,2.3-1.1,2.4-1C59.5,36.7,59.5,37.2,59.4,37.8
	 M76.3,36.8c0.4,0.2,1.1,0.5,1.5,0.7c0.4,0.2,0.9,0.4,1,0.5c0.2,0.1,0.3,0.2,0.3,0.7c0,0.3,0,0.9,0,1.3c0,0.6,0,0.7-0.1,0.4
	c-0.1-0.2-0.2-0.5-0.4-0.7c-0.2-0.2-0.3-0.4-0.2-0.4c0.1-0.1,0-0.1,0,0c-0.1,0-0.3-0.1-0.6-0.3l-0.4-0.4l-0.1,0.9
	c-0.2,2.2-2,5.6-3.7,6.9l-0.3,0.3l0.2-0.3c0.1-0.2,0.4-0.5,0.6-0.7c2.6-2.8,3.4-7.4,1.7-8.6C75.1,36.4,75.3,36.4,76.3,36.8 M76,37.5
	c0.3,0.6,0.2,1.3-0.1,2.6c-1.1,4.1-4.9,7.5-8.3,7.3c-1.1,0-1.1-0.2,0-0.2c0.4,0,1,0,1.2-0.1c0.2-0.1,0.6-0.2,0.9-0.3
	c1.4-0.5,2.7-1.4,3.7-2.8c0.6-0.7,0.7-0.8,0.8-0.7c0.1,0,0.1,0,0-0.1c-0.1-0.2,0.2-0.6,0.3-0.6c0.1,0,0.1-0.1,0.1-0.3
	c0-0.2,0-0.3,0.1-0.4c0.1-0.1,0.1,0,0.1,0.2c-0.1,0.2-0.1,0.3,0.1,0.1c0.1-0.1,0.1-0.3,0.1-0.3c0-0.1,0-0.4,0.2-0.6
	c0.4-0.9,0.8-2.5,0.7-3C75.4,37,75.6,36.6,76,37.5 M62.5,41.6c0.2,0.3,0.8,1.3,1.3,2.1c0.5,0.8,1,1.6,1.1,1.8l0.1,0.3l-0.4-0.2
	c-2.3-1-4.4-4.1-4.4-6.6v-0.8l0.9,1.4C61.7,40.3,62.3,41.2,62.5,41.6 M74.5,40.8c-0.6,2-3.3,4.9-4.5,4.9c0,0,0.3-0.5,0.7-1.1
	c0.4-0.6,1.2-1.8,1.6-2.7c0.9-1.7,1.3-2.2,1.8-2.7c0.2-0.1,0.4-0.5,0.4-0.7c0.1-0.4,0.1-0.3,0.1,0.5C74.7,39.7,74.7,40.2,74.5,40.8
	 M64.8,38.6c0.3,0.1,1.1,0.2,1.7,0.4c1.1,0.2,1.1,0.2,1.8,0c0.4-0.1,1.1-0.3,1.5-0.4c0.8-0.1,0.5-0.1-2.4-0.1
	C65.2,38.5,64.4,38.6,64.8,38.6 M78.2,38.7c0.1,0.1,0.2,0.2,0.3,0.2c0.1,0,0-0.1-0.1-0.2c-0.1-0.1-0.2-0.2-0.3-0.2
	C78.1,38.5,78.1,38.6,78.2,38.7 M68.4,38.9c-0.2,0.1-0.6,0.1-0.8,0.1l-0.5,0l0.5-0.1C68.4,38.7,68.9,38.7,68.4,38.9 M81.1,39
	c0.2,0.1,1.7,0.8,3.1,1.5c7,3.4,8.2,4.8,11.5,14.1c0.5,1.5,1.1,3.1,1.4,3.6c0.3,0.6,0.4,1.1,0.4,1.2c-0.1,0.3-0.1,0.3,0.2-0.1
	c0.4-0.5,0.5-0.3,0.2,0.3c-1.2,2.2-5.1,4.2-9,4.7c-1.5,0.2-1.4,0.1,0.3-0.2c3.6-0.7,6.8-2.3,8-4c0.2-0.3,0.1-0.2-0.4,0.3
	c-1.2,1.1-2.5,1.9-4.3,2.4c-1.3,0.4-1.6,0.4-0.7,0.1c2.5-1,4.2-2.1,4.6-3.1c0.1-0.3,0.2-0.6,0.2-0.6c0,0-0.1,0-0.2,0.2
	C96.4,59.6,96.1,60,96,60c0,0-0.1-0.2,0-0.5l0-0.5l-0.4,0.4c-0.2,0.2-0.5,0.5-0.8,0.6l-0.4,0.2l0.4-0.4c0.6-0.6,0.8-1.1,0.8-1.9
	l0.1-0.7l-0.3,0.6c-0.2,0.3-0.3,0.7-0.2,0.8c0.1,0.2,0,0.2-0.1,0c-0.1-0.1-0.2-0.1-0.3-0.1c-0.1,0.1-0.1,0-0.1,0
	c0.3-0.4-0.1-0.5-0.4-0.1c-0.5,0.6-0.5,0.5-0.1-0.4c0.3-0.5,0.4-0.9,0.4-1.5l0.1-0.8l-0.4,0.5C93.9,57,93.8,56.9,94,56
	c0.2-0.8,0-1.9-0.4-3.1c-0.1-0.4-0.3-0.8-0.3-1c-0.1-0.3-0.1-0.2-0.5,0.8c-0.4,1.1-1.6,3.9-1.7,3.8c0,0,0.2-0.7,0.5-1.4
	c1.1-2.8,1.3-4,0.5-5.7c-0.4-0.9-0.6-1.2-0.6-0.8c0,0.7-4.4,9.7-4.7,9.7c0,0,0.4-1,0.9-2.2c0.5-1.2,1.2-3,1.5-3.9
	c0.3-1,0.8-2.4,1-3.2c0.5-1.4,0.5-1.8,0.4-2.2c-0.2-0.4-2.5,3.8-4,7c-0.4,0.9-0.7,1.5-0.7,1.4c0-0.5,2-5.1,3.6-8.4
	c0.4-0.9,0.6-1.3,0.5-1.4c-0.1-0.2-0.1-0.2-0.2,0.1l-0.1,0.4l-0.1-0.3c-0.3-0.6-0.9-1.3-0.8-0.9c0.1,0.3,0,0.3-0.3-0.2l-0.3-0.5
	l-0.1,0.5l-0.1,0.5L88,44.5c-0.1-0.2-0.2-0.6-0.4-0.8c-0.3-0.4-0.3-0.3-0.1,0.3c0.2,0.4,0.1,0.3-0.5-0.5l-0.3-0.3l0.1,0.5l0.1,0.5
	l-0.3-0.5C86.2,42.8,86,42.6,86,43c0,0.2,0,0.4-0.1,0.4c-0.1,0.1-0.1,0-0.1-0.3c0-0.2,0-0.3-0.1-0.2c-0.1,0.1-0.2,0-0.4-0.3
	C85,42,84.8,42,84.9,42.6l0.1,0.5l-0.3-0.6c-0.3-0.7-0.8-1.2-0.6-0.7c0,0.2,0,0.4,0,0.5c-0.1,0.1-0.1,0.1-0.2-0.2
	c0-0.2-0.2-0.5-0.4-0.7l-0.3-0.4v0.3c0,0.4-0.2,0.3-0.3-0.1c-0.1-0.3-0.3-0.5-0.4-0.5c0,0-0.1,0.1,0,0.2c0.1,0.4-0.2,0.3-0.3-0.1
	c-0.1-0.2-0.2-0.4-0.4-0.6c-0.2-0.2-0.2-0.2,0,0.2c0.2,0.5,0.2,0.6,0.1,0.6c-0.1,0-0.1-0.1-0.1-0.2c0-0.1-0.2-0.4-0.5-0.7
	C80.2,39.3,80.2,38.5,81.1,39 M65.5,39.9c0.2,0.6,2.3,0.9,3.3,0.4c0.8-0.4,0.8-0.6,0-0.3c-0.6,0.2-1.6,0.3-2.2,0.1
	c-0.2-0.1-0.6-0.2-0.8-0.2C65.6,39.7,65.5,39.7,65.5,39.9 M56.6,47.2c2.2,4,8,11.1,11,13.6c0.2,0.2,0.4,0.4,0.5,0.5
	c0.1,0.1-0.1,0-0.2-0.1c-0.2-0.2-0.8-0.7-1.3-1.1c-5.1-4.3-8.1-8.2-10.4-13.2C55.3,44.9,55.4,45,56.6,47.2 M86.6,48.7
	c-0.5,1.7-1.2,4.3-1.5,5.8l-0.2,1.2l0.1-1c0.1-2.1,0.7-4.6,1.5-6.3C87.1,47,87.1,47.1,86.6,48.7 M49.3,50.2c0.4,1.2,0.8,3,0.9,4.5
	c0.1,1.5,0,1.4-0.2-0.2c-0.2-1.5-0.7-3.5-1.3-5.4c-0.2-0.8-0.5-1.5-0.5-1.6C48,47.1,49,49.4,49.3,50.2 M55.9,52c0,0.1,1.8,3,2.7,4.3
	c0.7,1.1,2.3,3.2,3.7,5l0.4,0.5l-0.5-0.5c-2.1-2-4.3-5.1-5.9-8.3c-0.9-1.8-1.3-2.8-0.7-1.7C55.8,51.6,55.9,52,55.9,52 M120.3,56.8
	c0,0.1-0.1,0.4-0.1,0.6l0,0.3l1.7,0.1c0.9,0.1,1.7,0.1,1.7,0.1c0.1-0.1-0.2-0.5-0.6-0.7c-0.2-0.1-0.6-0.3-0.8-0.4
	C121.5,56.4,120.4,56.4,120.3,56.8 M127.1,58c-0.4,0.6-0.4,1-0.1,1c1.5-0.4,1.4-0.3,1.4-0.8l0-0.4h-0.6
	C127.4,57.7,127.3,57.8,127.1,58 M26.7,58.6c-0.1,0.1-0.3,0.2-0.4,0.2c-0.3,0-0.3,0.7,0.1,1C27,60.5,28,60,28,59.2
	C28,58.6,27,58.2,26.7,58.6 M107.8,58.7c-0.8,0.6,0.2,1.8,1.1,1.3c0.7-0.4,0.5-1.6-0.3-1.5c-0.4,0-0.4,0-0.1,0.1
	c0.3,0.1,0.3,0.1,0.1,0.1c-0.1,0-0.3,0-0.4-0.1C108.2,58.5,108,58.6,107.8,58.7 M37.2,59.6c1.3,2.1,4.9,4,9,4.7
	c1.2,0.2,1.3,0.2,0.4,0.2c-4.1-0.3-8.5-2.5-9.7-4.9C36.5,58.8,36.8,58.9,37.2,59.6 M27.5,60.3c-0.4,0.2-0.2,0.2,0.6-0.1
	c0.3-0.1,0.4-0.1,0.1-0.1C28,60.2,27.7,60.2,27.5,60.3 M10.9,60.5c-1.6,0.7-1.2,3.7,0.6,3.8c0.7,0,0.9,0,1.4-0.6
	C14.2,62.4,12.6,59.8,10.9,60.5 M123.5,60.5c-1.9,0.9-1.7,3.8,0.3,3.8c0.7,0,1-0.1,1.5-0.8C126.4,62,125.1,59.8,123.5,60.5
	 M27.8,60.7C27.5,60.8,27.5,60.8,27.8,60.7c0.1,0.1,0.4,0.1,0.5,0C28.7,60.6,28.3,60.6,27.8,60.7 M124.7,61c0.7,0.5,0.8,1.7,0.1,2.5
	c-1.3,1.4-3-0.2-2-1.9C123.3,60.7,124,60.5,124.7,61 M12.3,61c1.2,0.9,0.8,2.9-0.6,2.9c-1.3,0-1.9-1.9-0.9-3
	C11.1,60.6,11.8,60.6,12.3,61 M20.5,60.9c1.6,0.2,2.7,0.5,3.9,1.1c4.7,2.4,6,9.2,2.7,13.5c-0.5,0.6-1.7,1.8-1.9,1.8
	c0,0-0.2,0.1-0.5,0.3c-0.4,0.2-0.3,0.2,0.2,0c0.2-0.1,0.2-0.1,0.1,0.1c-0.1,0.1-0.1,0.1,0,0.1c0.1,0,0.1-0.1,0.1-0.2
	c0-0.1,0-0.1,0-0.1s0.3-0.1,0.5-0.3c0.2-0.2,0.4-0.3,0.4-0.2c0.1,0,0.1,0,0-0.1c-0.1-0.1,0-0.1,0.1-0.1c0.1,0,0.2,0,0.2-0.1
	c0-0.4,0.6-0.8,0.8-0.7c0.2,0.1,0.2,0.1,0,0c-0.1-0.2-0.1-0.3,0.2-0.6c0.4-0.5,1-1.7,1.2-2.7c0.1-0.5,0.3-1,0.4-1.3l0.2-0.4l0.1,0.4
	c0,0.2,0.1,0.3,0.2,0.3c0.1,0,0.1,0.1,0.1,0.6c-0.2,1.3-1.2,3.8-1.5,3.8c-0.1,0-0.1,0.1-0.1,0.2c0,0.2-0.6,0.9-0.8,0.9
	c-0.1,0-0.1,0.1-0.1,0.2c0,0.2-1.4,1.4-1.7,1.4c-0.1,0-0.2,0-0.2,0.1c0,0.6-3.3,1.1-5.1,0.7c-0.9-0.2-0.8-0.2,0.4-0.3l0.9-0.1
	l-0.8,0c-0.5,0-0.7-0.1-0.5-0.1c0.2-0.1,0.2-0.1-0.1-0.2c-0.2,0-0.4-0.1-0.4,0c-0.1,0-0.1,0-0.1-0.1c0-0.1,0.1-0.1,0.1-0.1
	c0.1,0,0.1,0,0-0.1c-0.1-0.1-0.1-0.1-0.1-0.1c0.1,0,0.2,0.1,0.3,0.2c0.2,0.2,0.9,0.4,1.2,0.4c0.1,0,0.1,0,0-0.1
	c-0.4-0.2,1.5-0.4,2-0.3c0.2,0.1,0.4,0.1,0.3,0c0-0.1,0.1-0.1,0.2-0.1c0.2,0,0.2,0,0.1-0.1c-0.1-0.1-0.1-0.1,0.1-0.2
	c0.6-0.2,0.1-0.2-0.6,0c-0.6,0.1-1.1,0.2-1.9,0.1c-0.6,0-1.3-0.1-1.5-0.1c-0.2,0-0.3,0-0.3-0.1c0.1-0.1-1.3-0.6-1.4-0.5
	c-0.1,0-0.1,0,0,0c0.1-0.2-0.2-0.3-0.6-0.2L17,77.3l0.4,0.2c0.4,0.2,0.4,0.4,0,0.3c-0.2-0.1-0.3,0-0.1,0.1c0.2,0.2,0.2,0.2-0.2,0.2
	c-0.2,0-0.5-0.1-0.6-0.2c-0.1-0.1-0.6-0.4-1-0.8c-0.4-0.3-0.9-0.6-0.9-0.7c-0.4-0.3,0.1,0.4,1,1.3c3.7,4.1,10.2,3.5,13.3-1.2
	c0.2-0.3,0.4-0.5,0.4-0.4c0,1.2-3.2,3.7-5.4,4.3c-4.3,1.1-8.2-1-10.9-5.9c-2.9-5.4,0.5-12.7,6.4-13.6C19.3,60.7,19.9,60.8,20.5,60.9
	 M117,60.9c1.4,0.3,2.2,0.8,3.6,2c3.3,2.9,3.8,9.6,1,13c-0.1,0.2-0.4,0.5-0.6,0.7c-2.2,3-5.1,4.3-8.5,3.8c-2.3-0.3-6.1-2.6-5.7-3.3
	c0.1-0.2,0.4,0.1,0.3,0.3c0,0.1,0,0.2,0,0.1c0.1,0,0.3,0.1,0.5,0.3c3,3.1,8.7,3.2,11.8,0.2c1-1,1.3-1.5,0.6-1.2
	c-0.2,0.1-0.4,0.1-0.5,0.1c-0.1,0-0.1,0-0.1,0.1c0.1,0.1-0.5,0.8-0.7,0.7c-0.1,0-0.1,0-0.2,0.1c0,0.1-0.3,0.3-0.6,0.4
	c-0.3,0.2-0.6,0.3-0.6,0.4c-0.4,0.4-2.7,1-3.8,0.9c-0.5,0-0.9,0-0.7-0.1c0.1,0,0.3-0.1,0.3-0.2c0-0.1-0.1-0.1-0.3-0.1
	c-0.1,0-0.4,0.1-0.5,0.1c-0.2,0-0.3,0-0.2-0.1c0-0.1,0.3-0.1,1-0.1c0.8,0,1,0,1-0.1c0-0.1,0-0.2,0-0.3c0-0.1,0-0.2,0.1-0.3
	c0-0.1,0-0.2,0.1-0.1c0,0.1,0.2,0.1,0.3,0.1c0.1,0,0.2-0.1,0.3-0.1c0-0.1,0.1-0.1,0.1,0.1c0,0.2,0.1,0.2,0.4,0.1
	c0.2-0.1,0.2-0.1,0-0.1c-0.1,0-0.2,0-0.2-0.1c0-0.1,0.2-0.1,0.3-0.1c0.1,0,0.2-0.1,0.2-0.1c0-0.1,0.1-0.1,0.1-0.1
	c0.2,0,0.7-0.1,0.7-0.3c0-0.1-0.3,0-0.6,0.1c-0.3,0.1-0.7,0.2-0.8,0.2c-0.1,0-0.4,0-0.6,0c-0.5,0-0.5,0-0.4,0.4l0,0.4l-0.8,0
	c-0.5,0-1,0.1-1.2,0.2c-0.2,0.1-0.5,0.1-0.6,0.1c-0.2,0-0.2,0,0-0.1c0.3-0.1,0.3-0.1,0.1-0.1c-0.1,0-0.3-0.1-0.5-0.2
	c-0.4-0.3,0.3-0.7,0.8-0.4c0.1,0.1,0.1,0.1-0.2,0.1c-0.2,0-0.3,0-0.2,0c0.1,0,0.1,0.1,0,0.2c-0.2,0.1-0.1,0.2,0.4,0.3
	c0.4,0.1,0.4,0.1,0.1-0.1l-0.3-0.1l0.3-0.1c0.2-0.1,0.2-0.2,0.2-0.2c-0.1-0.1,0-0.1,0.1,0c0.1,0.1,0.3,0.1,0.4,0.2c0.1,0,0,0-0.1,0
	c-0.2,0-0.4,0-0.4,0.1c-0.1,0.2,0.3,0.3,0.8,0.1c0.3-0.1,0.5-0.1,0.5,0c0,0.1,0.1,0.1,0.1,0c0.1-0.2,0.1-0.2,0.2,0
	c0.1,0.1,0.1,0.1,0.1-0.1c0-0.2-0.1-0.2-0.3-0.2c-0.1,0-0.2,0-0.2-0.1c0-0.1-0.1-0.1-0.4-0.1c-0.2,0-0.8-0.1-1.3-0.3
	c-7.1-2.4-6.9-13.7,0.3-16.4C113.8,60.9,115.7,60.6,117,60.9 M26.2,61c-0.3,0-0.5,0.1-0.4,0.1c0.3,0,0.9,0,1.3-0.1l0.3-0.1l-0.4,0
	C26.9,60.9,26.5,60.9,26.2,61 M110.6,61c-0.3,0-0.4,0.1-0.3,0.2c0.1,0.1,1.1-0.1,1.1-0.2C111.4,60.8,111.1,60.9,110.6,61
	 M123.6,61.2c-0.8,0.6-0.6,1.9,0.2,1.9c0.9,0,1.3-1,0.6-1.7C124.1,61.1,123.9,61,123.6,61.2 M11,61.4c-0.3,0.2-0.4,0.8-0.1,1.3
	c0.4,0.8,1.5,0.5,1.5-0.4C12.4,61.4,11.7,60.9,11,61.4 M108,61.4c0.1,0,0.4,0,0.5,0c0.1,0,0-0.1-0.3-0.1
	C108,61.4,107.9,61.4,108,61.4 M20.3,61.8c-4.4,0.6-7.7,5.7-6.6,10.1c0.2,0.7,0.9,2.1,1.3,2.5c0.2,0.2,0.4,0.5,0.4,0.5
	c0,0.1,0.1,0.2,0.2,0.3c0.1,0.1,0.1,0.2,0.1,0.3c0,0.1,0,0.1,0,0.1c0.1,0,1.1,1,1,1c0,0,0,0.1,0.1,0c0.1,0,0.2,0.1,0.3,0.2
	c0.1,0.1,0.3,0.2,0.4,0.2c0.2,0,0.2-0.1-0.1-0.2c-2.6-1.4-4-6.2-2.9-9.5c0.8-2.2,2.8-4.2,4.8-4.5c0.4-0.1,0.3,0-0.2,0.2
	c-6.6,2.7-6.2,12.5,0.6,14.5c6.9,2.1,11.9-7.1,7.1-13.1C25.1,62.3,23,61.5,20.3,61.8 M113.1,61.8c-4.3,0.6-7.3,5.5-6.1,10.1
	c1.3,5.1,6.3,7.4,10.7,4.8c5-2.9,4.6-10.7-0.7-13.5c-1.3-0.7-0.9-0.6,0.5,0c3.1,1.5,4.6,5,3.7,9.1c-0.4,1.8-2.1,4.2-3.4,4.8
	c-0.3,0.1-0.5,0.3-0.5,0.3c0,0.1,0,0.1-0.1,0c-0.1,0-0.2,0-0.3,0.1c-0.2,0.2-0.2,0.2,0.1,0.1c0.2,0,0.4-0.1,0.5-0.1
	c0.1,0,0.2-0.1,0.1-0.2c0-0.1,0-0.1,0.2,0.1c0.2,0.2,0.2,0.2,0.1,0c-0.1-0.2-0.1-0.2,0.1-0.3c0.1-0.1,0.4-0.2,0.5-0.4
	c0.1-0.1,0.3-0.2,0.4-0.2c0.1,0,0.1,0,0.1,0c-0.1-0.1,0.6-0.8,0.8-0.7c0.1,0,0.1-0.1,0.2-0.3c0-0.2,0.1-0.3,0.1-0.4
	c0.1-0.1,1.1-1.8,1.3-2.4c0.1-0.2,0.2-0.5,0.3-0.5c0.2-0.3,0.4-1.8,0.3-2.8C121.5,64.9,117.4,61.2,113.1,61.8 M29,62
	c0,0.1-0.2,0.2-0.7,0.3l-0.8,0.1l0.8,0c0.9,0,1.1,0.2,0.4,0.6l-0.5,0.2l0.4-0.1c0.2,0,0.5-0.1,0.5-0.1c0.1,0,0.1,0.1,0.2,0.1
	c0,0.1-0.1,0.1-0.7,0.1c-0.8,0-1.1-0.3-0.4-0.4c0.2,0,0.4-0.1,0.4-0.2c0-0.1-0.2-0.1-0.4,0c-0.2,0.1-0.5,0.1-0.6,0.2
	c-0.1,0-0.4-0.1-0.6-0.3l-0.4-0.3l0.9-0.2C28.8,61.8,28.9,61.8,29,62 M107.7,61.9c0.1,0.1,1.1,0.1,1.1,0c0,0-0.2-0.1-0.6-0.1
	C107.9,61.8,107.7,61.8,107.7,61.9 M40.1,65.1c0.8,0.4,1.9,0.8,2.5,1c1.4,0.4,1.4,0.3,0.9,1.9c-0.2,0.7-0.4,1.3-0.3,1.4
	c0,0,0.2-0.2,0.3-0.6c0.1-0.4,0.3-0.7,0.3-0.8c0-0.1,0.1-0.3,0.2-0.6c0.1-0.5,0.6-0.7,0.8-0.4c0.1,0.2-0.2,0.7-0.4,0.7
	c-0.2,0-0.2,0.1-0.2,0.5c0,0.3-0.1,0.6-0.1,0.8c-0.1,0.1-0.2,0.4-0.2,0.6l-0.1,0.3l-1.5,0c-5.4,0.1-7.7,0.6-9.4,2.3l-0.5,0.5l0.5-1
	c1-1.8,2-3.8,2.3-4.7c0.5-1.3,1.2-2.7,1.6-3.4l0.4-0.6l0.8,0.7C38.5,64.2,39,64.6,40.1,65.1 M99.5,66.2c0.7,1.5,2.7,5.5,3.2,6.4
	c1.4,2.2,1.3,3.8-0.2,4.6c-0.4,0.2-0.4,0.2,0.3-0.6c0.4-0.5,0.3-0.6-0.2-0.2c-1,0.8-4.9,1.1-7.1,0.6c-1.7-0.4-2.8-0.6-3.2-0.8
	c-0.3-0.1-0.4-0.1-0.4-0.1c0.1,0.2,3.3,1.3,4.4,1.5c0.2,0-0.1,0-0.7,0c-1.8-0.1-4.6-0.8-6.1-1.7c-0.6-0.3-0.7-0.3-0.6,0.3
	c0.1,0.5-0.1,0.9-0.3,0.8c-0.1,0-0.1-0.2-0.1-0.3s-0.1-0.6-0.1-1c-0.1-0.8-0.3-0.8-0.3,0c0,1.2-0.6,3-1.4,3.8
	c-0.3,0.4-0.4,0.3-0.1-0.1c0.3-0.4,0.7-1.4,0.6-1.4c0,0-0.2,0.2-0.4,0.5c-0.2,0.3-0.8,0.9-1.3,1.4c-0.6,0.5-1.3,1.3-1.7,1.8
	c-1.1,1.4-1.6,1.9-2.2,2c-0.3,0-0.6,0.1-0.8,0.1c-0.5,0.1-0.4-0.2,0.3-1.4c0.8-1.3,2.3-4.4,2.6-5c0.3-0.7,0.2-0.8-0.1-0.1
	c-0.4,0.8-0.8,1.1-0.4,0.4c0.5-1-0.4,0.4-1.6,2.4c-1.5,2.5-3.2,4.8-4.1,5.5c-0.5,0.4-0.6,0.4-0.4,0c0.1-0.2,0.3-1,0.5-1.8
	c0.5-1.8,0.4-1.6,0.9-1.4c0.5,0.3,0.6,0.2,0.2-0.1c-0.6-0.4,0-1.9,1.6-4.6c0.7-1.1,1.6-2.9,1.5-2.9c-0.1-0.1-2,2.5-2.8,3.8
	c-1.4,2.5-2.3,4.2-2.9,5.9c-0.5,1.3-0.5,1.3-0.8,0.9c-0.2-0.2-0.9-0.4-1.2-0.2c-0.2,0.1-0.2-0.1,0.3-1.8c0.6-1.8,0.5-1.7,1.1-1.4
	c0.3,0.1,0.5,0.2,0.6,0.2c0,0-0.1-0.1-0.3-0.2c-1.1-0.5-0.7-1.8,1.6-5.9c0.7-1.2,1.5-2.9,1.5-3.1c0-0.2-0.7,0.6-1.8,2.3
	c-1.7,2.5-2.6,4.5-3.3,7.1c-0.4,1.6-0.4,1.6-0.7,1.6c-0.8-0.2-1.1-0.1-1.1,0.3c-0.1,0.3-0.1,0.3-0.2,0.1c0-0.1-0.1-0.3,0-0.3
	c0-0.1,0.1-0.7,0.2-1.3c0.6-3.8,2-7.7,4.2-11.1c0.7-1.1,1.4-1.2,10.7-1.3c2.9,0,6-0.1,6.9-0.2c4.2-0.3,7.4,0.3,8.8,1.7
	c0.2,0.2,0.2,0.2,0.1,0c-0.4-0.7-2.5-1.9-3.9-2.2C97.8,70,95,69.8,93,69.8l-1.8,0L91,69.4c-0.1-0.2-0.2-0.5-0.2-0.7
	c0-0.2,0-0.3-0.1-0.3c-0.1-0.1-0.5-1.1-0.5-1.4c0-0.1,0.1-0.1,0.2-0.1c0.1,0,0.2,0.1,0.2,0.2c0,0.1,0.1,0.3,0.2,0.5
	c0.1,0.1,0.2,0.4,0.2,0.5c0,0.2,0.1,0.3,0.2,0.3c0.1,0,0.1,0.1,0.1,0.2c0,0.1,0.1,0.4,0.2,0.7c0.2,0.6,0.4,0.3,0.1-0.3
	c-0.3-0.7-0.4-1.3-0.5-1.8l-0.1-0.5l1.1-0.3c1.7-0.6,3.8-1.6,4.8-2.5l0.9-0.8l0.4,0.8C98.7,64.2,99.2,65.3,99.5,66.2 M29.3,63.7
	c0,0.2-0.1,0.3-0.4,0.2c-0.2,0-0.4,0-0.4,0.1c0,0.1,0.2,0.1,0.4,0.2c0.3,0,0.5,0.1,0.5,0.3c0.1,0.2,0.1,0.2-0.1,0.2
	c-0.3-0.1-0.2,0.3,0.1,0.4c0.1,0,0.2,0.2,0.1,0.3c-0.1,0.2,0,0.2,0.1,0.2c0.2-0.1,0.2,0,0.1,0.2c0,0.1,0,0.4,0.1,0.6
	c0.2,0.4,0.5,1.7,0.5,1.9c0,0.1-0.2-0.3-0.4-1c-0.5-1.4-0.8-2.1-1.5-3.1L28,63.4l0.6,0C29.2,63.4,29.3,63.4,29.3,63.7 M49.1,69.3
	L49,69.9h-1.8c-1,0-1.8,0-1.8-0.1c0,0,0.2-0.6,0.5-1.2c0.3-0.6,0.6-1.4,0.7-1.7l0.2-0.6l0.6,0l0.6,0l0.2-0.6
	c0.1-0.3,0.3-0.9,0.5-1.3l0.3-0.7l0,2.5C49.1,67.6,49.1,69,49.1,69.3 M86.7,65.4l0.3,0.9l0.5,0.1c0.3,0,0.6,0.1,0.6,0.1
	c0.1,0.1,1.2,2.8,1.3,3.2l0.1,0.3h-1.8h-1.8l0-3.1C86,63.4,86,63.4,86.7,65.4 M10.1,64.1c0.1,0.1,0.3,0.2,0.5,0.2
	c0.3,0,0.1-0.2-0.4-0.3C9.9,64,9.9,64,10.1,64.1 M31.1,64.6c0.1-0.1,0.1,0.1,0,0.4c0,0.4,0,0.5,0.1,0.4c0.1-0.1,0.1,0,0,0.1
	c-0.1,0.2-0.3,0-0.4-0.5c0-0.3,0-0.4,0-0.3C31,64.7,31,64.7,31.1,64.6 M122.9,64.9c0.1,0.1,0.4,0.2,0.6,0.2c0.3,0,0.3,0-0.2-0.2
	C122.7,64.6,122.7,64.6,122.9,64.9 M124.7,64.8c-0.1,0.1,0,0.1,0.3,0c0.6-0.1,0.7-0.2,0.2-0.2C125,64.7,124.8,64.7,124.7,64.8
	 M10.1,65.5c0.1,0.1,0.9,0.1,1,0c0,0-0.2,0-0.5,0C10.3,65.4,10,65.4,10.1,65.5 M123.4,65.6c0.1,0.1,0.4,0.1,0.7,0.2
	c0.3,0,0.4,0,0.3,0c-0.1-0.1-0.4-0.1-0.7-0.2C123.4,65.5,123.2,65.6,123.4,65.6 M10.4,66.7c0.1,0,0.4,0,0.5,0c0.1,0,0-0.1-0.3-0.1
	C10.3,66.6,10.2,66.6,10.4,66.7 M51.7,69c0.6,0.7,0.1,0.5-0.6-0.3c-0.6-0.6-0.9-1.2-0.9-1.5c0-0.1,0.2,0.1,0.5,0.6
	C51,68.1,51.5,68.7,51.7,69 M124,67.1c0.1,0.1,0.3,0.1,0.5,0.1c0.5,0,0.4-0.1-0.2-0.2C123.9,67,123.8,67,124,67.1 M84.7,67.6
	c-0.2,0.5-0.7,1.2-1.2,1.5c-0.5,0.4-0.5,0.2,0.3-0.9c0.4-0.5,0.8-1,0.8-1.1s0.1-0.1,0.1,0C84.8,67.2,84.8,67.4,84.7,67.6 M20.9,68
	c1,0.3,1.7,1.5,1.5,2.7c-0.3,2.2-3.2,2.7-4.2,0.8C17.3,69.5,18.9,67.4,20.9,68 M116.1,68.1c2.2,0.8,1.8,4.4-0.6,4.6
	c-1.4,0.1-2.4-0.8-2.4-2.3C113.1,68.6,114.5,67.5,116.1,68.1 M124.1,68.3c0,0.1,0.2,0.1,0.5,0.1c0.3,0,0.5,0,0.5-0.1
	C125.2,68.2,124.2,68.2,124.1,68.3 M10.6,68.4c0.1,0,0.4,0,0.5,0c0.1,0,0-0.1-0.3-0.1S10.5,68.3,10.6,68.4 M30.8,69.2l0.1,0.4
	L30.8,69.2c-0.2-0.2-0.3-0.5-0.3-0.6l0-0.2l0.1,0.2C30.6,68.7,30.7,69,30.8,69.2 M109.6,72c0.1,0.4,0.1,0.2,0.1-0.9l0-1.4l0.1,1.3
	c0.1,0.7,0.2,1.4,0.4,1.6c0.1,0.2,0.2,0.3,0.1,0.1c-0.2-0.6-0.3-2.4-0.2-3.1l0.1-0.7l0,1c0,1.1,0.2,2.1,0.5,2.7
	c0.3,0.6,0.3,0.5,0.1-0.2c-0.1-0.3-0.2-1.2-0.2-1.9c0-1.1,0-1.2,0-0.5c0.2,1.3,0.4,2.1,0.7,2.6c0.4,0.7,0.4,0.6,0.1-0.2
	c-0.2-0.4-0.3-1-0.4-1.3l-0.1-0.6l0.3,0.7c0.2,0.6,0.8,1.6,0.9,1.6c0,0-0.1-0.4-0.3-0.9c-0.5-1.2-0.5-1.6-0.2-1
	c0.3,0.6,1,1.6,1.1,1.6c0,0-0.1-0.3-0.3-0.7c-0.5-0.9-0.4-1,0.1-0.2c0.9,1.3,2.8,1.9,4.3,1.4c0.8-0.3,0.8-0.1-0.1,0.3l-0.5,0.2
	l0.4,0c0.5,0,0.5,0.1,0.1,0.3c-0.2,0.1-0.3,0.2-0.3,0.2c0,0.1,1,0,1.3-0.2c0.1-0.1,0.2-0.1,0.2,0c0,0.1-0.7,0.4-0.7,0.4
	c0,0-0.3,0-0.6,0.2c-0.3,0.1-0.7,0.3-0.9,0.3c-0.3,0-0.3,0.1,0.1,0.1c0.3,0,1.5-0.3,2.3-0.5c0.2-0.1,0.2-0.1,0,0.1
	c-0.1,0.1-0.3,0.2-0.5,0.2c-0.1,0-0.4,0.1-0.6,0.2c-0.2,0.1-0.7,0.3-1,0.4l-0.7,0.2l0.6-0.1c0.3,0,0.8-0.2,1.1-0.3
	c0.3-0.1,0.6-0.2,0.6-0.2c0.1,0,0,0.1-0.2,0.2c-0.2,0.1-0.4,0.3-0.5,0.3c-0.1,0.1-0.5,0.2-0.9,0.3c-1,0.2-0.4,0.2,0.9,0
	c1.3-0.2,1.3-0.2,0,0.2c-1.4,0.4-1.3,0.4-1.1,0.4c0.1,0,0.6-0.1,1-0.2c1-0.3,1-0.3,0.1,0.3c-4.2,2.5-9.4-0.4-9.3-5.3
	c0-1,0-1,0.1-0.4l0.1,0.7l0-0.8c0-1,0.2-0.9,0.3,0.2c0,0.7,0,0.6,0.2-0.8l0.1-0.8l0.1,1.1c0.1,1.7,0.3,1.9,0.3,0.4l0-1.3l0.1,1.4
	c0.2,2.1,0.3,2.1,0.3-0.1l0-2l0.1,1.6C109.4,70.9,109.5,71.8,109.6,72 M109.7,69.2c-0.1,0.3-0.1,0.4-0.1,0.3c0-0.3,0.1-1.1,0.2-0.9
	C109.8,68.6,109.8,68.9,109.7,69.2 M10.5,68.9c0,0.1,0.2,0.1,0.4,0.1c0.4,0,0.4-0.1,0-0.2C10.7,68.8,10.5,68.8,10.5,68.9 M26.7,71
	c-0.1,0.4-0.1,0.8-0.1,0.8c0.1,0.1,0.4-1.3,0.4-1.9c0-0.8,0.2-0.5,0.2,0.3c0,0.3,0,0.4,0.1,0.2c0.1-0.1,0.1,0.1,0.1,0.7l0,0.8
	l0.1-1.1l0.1-1.1l0,1.1c0.1,5-5.4,8.2-9.4,5.3c-0.6-0.4-0.9-0.8-0.3-0.4c0.5,0.3,1.1,0.5,1.6,0.5c0.2,0,0.1-0.1-0.3-0.2
	c-0.6-0.1-1.4-0.5-1.2-0.5c0.1,0,0.3,0.1,0.6,0.2c0.2,0.1,0.5,0.2,0.6,0.2c0.1,0,0-0.1-0.3-0.2c-0.6-0.2-1.5-0.6-1.6-0.8
	c0-0.1,0.1,0,0.3,0.1c0.5,0.3,1.7,0.7,1.9,0.6c0.1,0-0.2-0.1-0.6-0.3c-0.5-0.2-0.9-0.3-1-0.4c-0.1-0.1,0.1,0,0.4,0.1
	c0.3,0.1,0.8,0.2,1.2,0.2l0.7,0.1l-0.7-0.2c-0.4-0.1-0.9-0.2-1.2-0.3c-0.3-0.1-0.6-0.2-0.7-0.2c-0.2,0-0.1-0.1,0.1-0.1
	c0.2,0,0.6,0.1,0.9,0.2c0.3,0.1,0.7,0.2,0.9,0.2c0.3,0,0.3,0-0.2-0.2C18.8,74.5,17.8,74,18,74c0.1,0,0.5,0.1,0.9,0.2
	c1,0.3,1.7,0.3,0.8,0C19,74,18,73.4,18.3,73.4c0.1,0,0.4,0.1,0.6,0.2c0.2,0.1,0.4,0.2,0.3,0.1c0-0.1,0.1-0.1,0.3-0.1
	c0.3,0.1,0.3,0-0.2-0.2c-0.7-0.3-1-0.6-0.4-0.4c1.5,0.6,3.3-0.1,4-1.6c0.4-0.8,0.4-0.4,0,0.5c-0.1,0.2-0.1,0.4-0.1,0.5
	c0.1,0.1,0.6-0.8,0.8-1.4c0.5-1.2,0.2,0.1-0.3,1.6c0,0.1,0.1,0,0.2-0.4c0.2-0.3,0.4-0.8,0.5-1.1l0.1-0.5l0,0.4c0,0.2,0,0.6-0.1,0.8
	c-0.1,0.2-0.1,0.4-0.1,0.5c0.1,0.1,0.6-1.1,0.7-1.8L25,70l0,0.6c0,0.3-0.1,0.8-0.2,1.1c-0.1,0.3-0.2,0.5-0.1,0.6
	c0.1,0.1,0.5-0.9,0.5-1.7c0.1-0.4,0.1-0.8,0.2-0.9c0.2-0.2,0.1,1.9-0.1,2.4c-0.2,0.7-0.1,0.7,0.1,0.1c0.1-0.3,0.2-1,0.3-1.6l0.1-1.1
	l0.1,0.7c0.1,0.7,0,1.6-0.1,2.2c0,0.2,0,0.2,0.1-0.1c0.2-0.3,0.2-0.8,0.2-1.9c0-1.6,0.2-1.5,0.2,0.1c0,1.2,0.2,0.7,0.2-0.7l0-1.2
	l0.1,0.8C26.8,70,26.8,70.5,26.7,71 M124.4,68.8c0.1,0,0.4,0,0.5,0c0.1,0,0-0.1-0.3-0.1C124.3,68.8,124.3,68.8,124.4,68.8
	 M25.1,69.5c0,0.3-0.1,0.2-0.2-0.2c-0.1-0.3,0-0.3,0-0.2C25,69.2,25.1,69.4,25.1,69.5 M50.8,69.9c-0.1,0.1-0.7-0.5-0.7-0.7
	c0-0.1,0.2,0,0.4,0.2C50.7,69.6,50.8,69.8,50.8,69.9 M85,69.3c0,0.1-0.1,0.2-0.3,0.3c-0.3,0.2-0.4,0.1-0.1-0.2
	C84.8,69.2,85,69.2,85,69.3 M103.8,69.7c0.1-0.2,0.2,0.1,0.1,0.8c-0.1,0.5-0.1,0.6-0.1,0.1c0-0.3-0.1-0.4-0.1-0.4
	c-0.1,0-0.1,0.2-0.1,0.3c0.1,0.2,0,0.2,0,0.1c-0.1-0.1-0.1-0.4,0-0.7c0-0.3,0.1-0.4,0.1-0.3C103.6,69.8,103.7,69.8,103.8,69.7
	 M31.8,70c0,0.2-0.4,0.5-0.4,0.4c-0.1-0.1,0.2-0.7,0.3-0.6C31.7,69.8,31.8,69.9,31.8,70 M24.5,71.2c0,0.2-0.1,0.1-0.1-0.3
	c0-0.3,0-0.5,0.1-0.3C24.5,70.8,24.5,71,24.5,71.2 M30.6,72.8c-0.2,0.8-0.2,0.6-0.1-0.9l0.1-1.4l0.1,0.9
	C30.7,72,30.7,72.4,30.6,72.8 M47.4,70.8C57.8,71,58.1,71,58.7,71.7c1.1,1.2,3.3,6,4,8.8c0.4,1.7,0.9,4.6,0.7,4
	c-0.1-0.3-0.2-0.3-0.8-0.2l-0.6,0.1l-0.2-0.7c-1.3-4.5-2.1-6-4.6-9.6c-1.2-1.6-0.9-1,0.7,2.1c2.1,3.8,2.7,5.3,2.3,5.8
	c-0.1,0.1-0.1,0.2,0.1,0.1c0.2-0.1,0.3,0.1,0.7,1.4c0.6,1.9,0.6,1.9,0,1.9c-0.2,0-0.6,0.1-0.8,0.2l-0.4,0.2l-0.4-1.3
	c-0.5-1.4-1.8-4.2-3.1-6.2c-0.8-1.4-2.8-4.1-2.7-3.7c0.1,0.4,0.8,1.7,1.4,2.8c1.4,2.4,2.3,4.4,2.9,6.6c0.2,0.9,0.5,1.7,0.5,1.8
	c0.1,0.3-0.6-0.2-1.5-1.2c-0.8-0.9-1.8-2.3-3.4-4.9c-1.3-2.1-2.4-3.8-2.4-3.7c0,0.5,1.6,3.9,2.9,6.1c0.3,0.6,0.7,1.2,0.7,1.4
	l0.1,0.3L54.2,84c-0.9-0.1-1.5-0.5-2.1-1.3c-1.5-2-1.8-2.3-2.4-2.8c-0.3-0.3-0.9-0.8-1.1-1.2c-0.6-0.9-0.7-0.8-0.2,0.2
	c0.4,0.8,0.4,0.9,0,0.5c-0.7-0.8-1.3-2.7-1.3-4c0-0.5-0.1-0.4-0.3,0.3c-0.2,1.2-0.3,1.5-0.5,1.4c-0.1-0.1-0.1-0.3-0.1-0.7
	c0.1-0.7,0.2-0.7-0.7-0.3c-2,0.9-4.9,1.7-6.1,1.7l-0.6,0l1-0.3c1.1-0.3,2.9-1,2.8-1.1c0,0-0.2,0-0.4,0.1c-3,1.1-8.5,1.1-9.7,0
	c-0.7-0.6-0.4,0,0.3,0.8l0.3,0.3l-0.4-0.2c-1.3-0.7-1.7-2.4-0.9-3.7c1.2-2,3.8-3.1,7.3-3C40,70.6,43.7,70.7,47.4,70.8 M31.3,71
	c0,0.2,0,0.3,0,0.4c0.1,0,0.1,0,0.1-0.1c0-0.1,0-0.1,0.1-0.1c0.1,0.1-0.2,0.7-0.3,0.7c0,0-0.1-0.3-0.1-0.6c0-0.4,0-0.6,0.1-0.6
	C31.3,70.7,31.3,70.8,31.3,71 M106.2,71.8c0,0,0.1-0.1,0.1-0.3c0-0.2,0.1,0,0.2,0.4c0.1,0.4,0.2,0.9,0.3,1.1c0.1,0.2,0.1,0.3,0,0.4
	c0,0.1,0,0.1,0,0.1c0.1-0.1,0.2,0.1,0.3,0.5c0,0,0.1,0.1,0.2,0.2c0.3,0.4,0.5,0.9,0.3,0.8c-0.1-0.1-0.1,0.3,0,0.4
	c0.1,0.1,0.1,0,0-0.1c-0.1-0.1,0-0.1,0.1-0.1c0.1,0,0.2,0.1,0.1,0.2c0,0.1,0,0.1,0.2,0.1c0.2-0.1,0.2,0,0.1,0.1
	c-0.1,0.1-0.1,0.2-0.1,0.2c0,0,0.1,0,0.3,0.1c0.3,0.1,0.8,0.5,0.7,0.7c0,0.1,0,0.1,0.1,0.1c0.1,0,0.1,0,0.1,0.1c0,0.1,0,0.1,0.1,0.1
	c0.1,0,0.2,0,0.4,0.1c0.1,0.1,0.4,0.3,0.6,0.4c0.2,0.1,0.3,0.3,0.3,0.4c0,0.1,0,0.2,0.1,0.2c0.1,0,0,0.1,0,0.2
	c-0.1,0.1-0.2,0.1-0.5-0.1c-0.2-0.1-0.4-0.2-0.5-0.2c-0.1,0-0.2-0.1-0.3-0.1c0-0.1-0.1-0.1-0.2-0.1c-0.1,0,0,0.1,0.1,0.3l0.2,0.3
	L109,78c-0.8-0.6-0.8-0.7-0.6-1c0.1-0.1,0.2-0.2,0.3-0.2c0.2,0.1,0.1,0-0.1-0.2c-0.1-0.1-0.2-0.1-0.1,0c0,0.1,0,0.2-0.2,0.3
	c-0.3,0.2-1-0.4-0.9-0.7c0.1-0.1,0-0.1-0.1,0c-0.1,0.1-0.1,0-0.1-0.1c0-0.1,0-0.2-0.1-0.2c-0.1,0-0.2-0.1-0.3-0.3
	c-0.1-0.2-0.3-0.5-0.4-0.7c-0.5-0.8-1-3.5-0.7-3.5c0.1,0,0.1-0.2,0.1-0.4c0-0.4,0-0.4,0.1,0.1C106.1,71.5,106.1,71.8,106.2,71.8
	 M11.4,74.1c-0.1,0.1-0.1,0.1-0.1,0.2c0.1,0.1,0.6-0.1,0.6-0.2C12,74,11.6,74,11.4,74.1 M124.3,75.3c-0.1,0.2-0.1,0.5-0.1,0.5
	c0,0.1-0.1,0.1-0.2,0c-0.1-0.1-0.4-0.2-0.7-0.3c-0.5-0.1-0.7-0.4-0.2-0.3c0.9,0.2,1,0.2,1,0c0-0.1-0.2-0.2-0.5-0.3
	c-0.3-0.1-0.5-0.2-0.5-0.2c0-0.2,0.2-0.2,0.7,0l0.6,0.2L124.3,75.3 M12.4,75c-0.1,0.1-1.2,0.4-1.2,0.3c0-0.1,0-0.2-0.1-0.3
	c-0.1-0.1,0-0.2,0.3-0.2c0.2,0,0.5-0.1,0.6-0.1C12.2,74.6,12.5,74.9,12.4,75 M117.8,75.3c-0.2,0.1-0.5,0.2-0.6,0.1
	c-0.1,0,0-0.1,0.2-0.2C118,75,118.2,75.1,117.8,75.3 M12.7,75.5c0,0.1-0.2,0.1-0.5,0.2c-0.2,0-0.5,0.2-0.6,0.3
	c-0.2,0.2-0.2,0.2,0.1,0.1c1.3-0.3,1.8-0.1,0.6,0.2c-0.8,0.2-0.9,0.2-0.9-0.4c0-0.3,0.1-0.3,0.4-0.4C12.5,75.4,12.8,75.4,12.7,75.5
	 M41.5,75.9c-1.2,0.4-3.5,0.9-4.2,0.9c-0.3,0-0.5,0.1-0.6,0.1c-0.2,0.4,2.9-0.2,4.8-0.9C43.3,75.4,43.2,75.3,41.5,75.9 M92.4,75.7
	c0,0.4,5.5,1.6,5.7,1.3c0-0.1-0.1-0.1-0.3-0.1c-0.2,0-0.5-0.1-0.8-0.1c-0.3-0.1-0.9-0.2-1.3-0.3c-0.8-0.1-2.8-0.6-3.2-0.8
	C92.5,75.7,92.4,75.7,92.4,75.7 M123.4,76c0.3,0.1,0.6,0.1,0.6,0.1c0,0,0.1,0.1,0.1,0.2c0,0.2,0,0.3-0.2,0.2c-0.1,0-0.5-0.2-0.8-0.3
	c-0.3-0.1-0.6-0.2-0.6-0.3C122.5,75.8,122.7,75.8,123.4,76 M123.3,76.7c0.5,0.1,0.7,0.2,0.7,0.3c0,0.2-0.2,0.3-0.3,0.1
	c0-0.1-0.4-0.2-0.8-0.3c-0.4-0.1-0.8-0.2-0.8-0.2c0-0.2,0.2-0.2,0.4-0.2C122.5,76.5,122.9,76.6,123.3,76.7 M13.5,76.7
	c0.1,0.1-0.1,0.2-0.9,0.4c-0.8,0.2-1,0.2-1.1,0.1c-0.1-0.2,0-0.3,0.9-0.4c0.4-0.1,0.8-0.2,0.9-0.2C13.3,76.5,13.4,76.6,13.5,76.7
	 M31.2,78.1c1.9,2.5,8.5,3,13.7,1c1.3-0.5,1.6-0.5,0.8-0.1c-2.9,1.7-6.9,2.4-10.3,1.9c-3.2-0.5-4.6-1.6-4.8-3.8l0-0.7l0.2,0.6
	C30.8,77.4,31,77.9,31.2,78.1 M104.3,78.2c-1.2,3.5-8.4,4.1-14.3,1.2c-0.7-0.3-1.2-0.6-1.2-0.7c0-0.1,0.3,0,1,0.3
	c0.5,0.3,2.5,0.9,3.5,1.1c1.1,0.2,5.9,0.2,7-0.1c2.1-0.5,3.7-1.7,4-2.8c0.1-0.5,0.2-0.5,0.2-0.2C104.6,77.2,104.5,77.7,104.3,78.2
	 M107,78c0.3,0.2,0.3,0.3,0.2,0.3c-0.3,0-0.8-0.5-1-1c-0.3-0.6-0.2-0.6,0.1,0C106.5,77.5,106.8,77.9,107,78 M107,76.9
	c0,0.2-0.1,0.3-0.3,0.2c-0.1-0.1,0-0.3,0.1-0.3C106.9,76.8,107,76.8,107,76.9 M108.4,77.2c0,0.1,0.1,0.2,0.2,0.2
	c0.3,0.1,0.3,0,0-0.2C108.5,77.2,108.4,77.2,108.4,77.2 M122.9,77.3c1.1,0.2,1,0.2,0.9,0.5c-0.1,0.2-0.1,0.2-1.3-0.1
	c-0.9-0.2-1.1-0.3-1-0.5C121.7,77.1,121.7,77.1,122.9,77.3 M14.1,77.4c0,0.1-0.3,0.2-0.8,0.3c-0.4,0.1-0.9,0.2-1.1,0.3
	c-0.5,0.2-0.6,0.2-0.6-0.1c0-0.2,0.1-0.2,0.8-0.3c0.4,0,0.9-0.1,1-0.2C13.9,77.2,14.1,77.2,14.1,77.4 M28.8,77.6
	c-0.1,0.2-0.4,0.5-0.7,0.7c-0.7,0.4-0.8,0.4-0.2,0c0.3-0.2,0.6-0.5,0.8-0.7C29,77.1,29.1,77.1,28.8,77.6 M109.5,77.4
	c-0.2,0.2-0.1,0.5,0.1,0.5c0.1,0,0.1-0.1,0-0.2c-0.1-0.2-0.1-0.3,0.1-0.3c0.1,0,0.1,0.1,0,0.1c0,0.1,0,0.1,0.1,0
	c0.2-0.1,0.2-0.1,0-0.2C109.7,77.2,109.7,77.2,109.5,77.4 M17.9,77.4c0,0.1,0.1,0.2,0.2,0.4c0.2,0.2,0.2,0.3,0.1,0.3
	c-0.3,0.1-0.5-0.1-0.4-0.3c0-0.1,0-0.3-0.1-0.3c-0.2-0.1-0.2-0.1,0-0.1C17.8,77.4,17.9,77.4,17.9,77.4 M122.5,77.5
	c0.8,0.3,1.2,0.3,1.1,0.2c-0.1-0.1-0.3-0.2-1.3-0.3C122.1,77.4,122.2,77.4,122.5,77.5 M13.4,78c0,0.1-1.5,0.6-1.5,0.5
	c-0.1-0.1,0.1-0.2,0.7-0.4C13.1,78,13.4,77.9,13.4,78 M122.2,78.3c0.5,0.2,1,0.4,1.1,0.4c0.2,0,0.3,0.2,0.2,0.4c0,0-0.3,0-0.5,0
	c-0.5-0.1-0.5,0-0.1,0.5c0.2,0.2,0.3,0.4,0.3,0.5c-0.1,0.2-0.2,0.1-0.5-0.5c-0.4-0.8-0.7-1-1.6-1.2c-0.4-0.1-0.6-0.2-0.6-0.2
	C120.9,77.9,121.3,77.9,122.2,78.3 M14.5,78.2c-2.2,0.4-2.8,2.8-1.2,4.5c0.4,0.4,0.4,0.4,0.1,0.2c-0.5-0.4-1.1-1.6-1.1-2.4
	c0-0.4-0.1-0.7-0.1-0.7c0,0-0.1-0.1-0.1-0.1s0.1-0.1,0.2-0.1c0.2,0,0.4-0.3,0.4-0.5c0,0-0.2,0-0.4,0C12,79.2,12,79.1,12,79
	c0-0.1,0.1-0.2,0.4-0.2c0.2,0,0.6-0.1,0.9-0.4c0.4-0.3,0.7-0.4,1.1-0.3l0.6,0L14.5,78.2 M17.8,78.4c0.4,0.2,0.8,0.3,0.9,0.2
	c0.1-0.1,0.1-0.3-0.1-0.3c-0.2,0-0.2-0.1,0-0.1c0.3-0.1,0.8,0.1,0.8,0.3c0,0.1,0,0.1-0.1,0c-0.1-0.1-0.1-0.1-0.1,0
	c0,0.2,0.3,0.4,0.6,0.3c0.1,0,0.2,0,0.2,0.1c0,0.2-0.1,0.2-0.3,0.1c-0.2,0-0.3,0-0.3,0c0.1,0.2-1.1-0.2-1.3-0.4c0,0-0.2-0.1-0.4-0.2
	c-0.3-0.1-0.9-0.4-0.7-0.4C17,78.1,17.4,78.2,17.8,78.4 M110,78.5c-0.1,0.1-0.7-0.2-0.7-0.4c0-0.1,0.2,0,0.4,0.1
	C109.9,78.4,110.1,78.5,110,78.5 M15.3,78.9c0.9,0.3,1.3,1.4,0.9,2.8c-0.3,0.9-1.3,1.3-2.2,0.7C12.3,81.1,13.3,78.2,15.3,78.9
	 M121.4,79.1c1.4,0.9,1.1,3.1-0.5,3.5c-1.6,0.4-2.5-1.9-1.4-3.2C120.1,78.7,120.7,78.6,121.4,79.1 M14.1,79.6
	c-0.4,0.4-0.6,1.1-0.4,1.7c0.4,1.4,2.3,0.8,2.3-0.7C16,79.4,14.9,78.8,14.1,79.6 M16.9,79.9c0.6,2.2-1,4-2.8,3.3
	c-0.2-0.1,0-0.1,0.7-0.1c1.8,0,2.7-1.5,2-3.4c-0.1-0.3-0.1-0.5-0.1-0.4C16.7,79.3,16.8,79.6,16.9,79.9 M20.9,79.3c0.1,0,0.4,0,0.5,0
	c0.1,0,0-0.1-0.3-0.1C20.9,79.3,20.7,79.3,20.9,79.3 M119.8,79.6c-0.8,0.8-0.2,2.5,1,2.5c0.3,0,0.9-0.6,1-1
	C122.1,79.8,120.7,78.7,119.8,79.6 M118.6,80.7c0,1,0,1.1,0.4,1.7c0.5,0.7,0.6,0.9,0.1,0.4c-0.6-0.8-0.9-1.7-0.6-2.8
	C118.6,79.4,118.7,79.5,118.6,80.7 M68.1,80.1c0.3,0.3,0.2,0.4-0.3,0.5c-0.5,0.1-1-0.1-1-0.4C66.8,80,67.8,79.8,68.1,80.1
	 M15.1,80.3c0.3,0.7-0.1,1-0.6,0.6c-0.3-0.2-0.3-0.3-0.2-0.5C14.5,80.1,15,80,15.1,80.3 M121,80.5c0,0.4-0.3,0.6-0.6,0.5
	c-0.2-0.1-0.3-0.6,0-0.8C120.7,80,121,80.1,121,80.5 M68.4,82.2c0,1.4,0,1.6-0.2,1.5c-0.1-0.1-0.1-2.8,0-2.8
	C68.3,80.8,68.4,81.4,68.4,82.2 M67.5,82.6c0,0.8-0.1,1.6-0.1,1.6c0,0-0.2,0.1-0.4,0.1l-0.3,0.1l0.1-0.9c0-0.5,0.1-1,0.1-1.1
	c0-0.1,0-0.3,0-0.5c0-0.2,0.1-0.3,0.2-0.3c0.1,0,0.2,0,0.1-0.2c0-0.1,0-0.2,0.1-0.2s0.1-0.1,0-0.2c-0.1-0.1,0-0.2,0.1-0.1
	C67.5,81.1,67.5,81.5,67.5,82.6 M122.8,82c-0.3,0.6-0.9,1.1-1.6,1.3c-0.7,0.2-1.2,0.2-1.2,0c0-0.1,0.3-0.1,0.6-0.1
	c1,0,1.9-0.6,2.2-1.4c0.1-0.2,0.2-0.4,0.2-0.4C123,81.5,122.9,81.8,122.8,82 M108.7,82.1c0,0,0.2,0.1,0.4,0.1c0.3,0.1,0.3,0,0.2,0
	C109.1,82,108.5,82,108.7,82.1 M101.2,82.2c0.1,0,0.3,0,0.4,0c0.1,0,0-0.1-0.2-0.1C101.1,82.2,101,82.2,101.2,82.2 M107.5,82.5
	c-0.3,0.1-0.3,0.1-0.1,0.1c0.1,0,0.3,0,0.4,0.1c0.1,0,0.2,0,0.2-0.1C108.1,82.4,108.1,82.4,107.5,82.5 M30.5,82.6l-0.4,0.1l0.4,0
	c0.2,0,0.4,0,0.4-0.1s0-0.1,0-0.1C30.9,82.5,30.7,82.6,30.5,82.6 M56.1,82.6c-0.2,0.1-0.3,0.1-0.1,0.1c0.1,0,0.3,0,0.4-0.1
	C56.6,82.5,56.5,82.5,56.1,82.6 M108.8,83.6c0.1,0.1,0.3,0.2,0.6,0.2c0.2,0,1.5,0.3,2.7,0.5c1.2,0.3,2.4,0.5,2.6,0.5
	c1.7,0.3,6.6,1.5,10.2,2.5c3.2,0.9,3.7,1,1.7,0.3c-3.6-1.2-9.6-2.7-16.2-4C108.5,83.4,108.6,83.4,108.8,83.6 M38,83.9
	c1.6,0.1,2.6,0.3,1.3,0.3c-0.3,0-1,0.2-1.7,0.4c-0.7,0.2-1.8,0.5-2.5,0.7c-3.1,0.9-6.5,3.4-8,5.9l-0.5,0.8l-0.7-0.3
	C25,91.2,24.1,91,23.1,91c-1.2,0-1.3,0.2-0.1,0.3c2.1,0.1,3.3,0.7,5.9,2.9c0.7,0.6,1.4,1.1,1.5,1.2c0.5,0.1,0.2,0.6-0.5,0.7
	c-0.3,0.1-0.4,0-0.9-0.5c-0.3-0.3-0.6-0.6-0.7-0.7c-0.1,0-0.2-0.1-0.2-0.1c0,0-0.2-0.2-0.5-0.4c-0.3-0.2-1-0.6-1.5-0.9
	c-1.8-1.1-3.2-1.3-4-0.6c-0.5,0.5-1,0.6-1.1,0.2c-0.2-0.8-0.5,0.5-0.6,2.5c-0.1,1.1-0.1,1.8-0.2,1.9c-0.2,0.4-0.2,0.4,0.3,0.6
	c0.8,0.4,2,0.3,2.5-0.1c0.4-0.3,0.4-0.3,0.4-0.1c0,0.4-0.9,0.8-2,0.8c-2.4,0-3.6-1.4-1.9-2.2c0.4-0.2,0.5-0.4,0.2-0.4
	c-0.7,0-1.8,1.2-1.5,1.7c1.2,1.9,6.6,1.4,5.6-0.6c-0.2-0.4-0.1-0.4,1.5-0.2c2.6,0.3,4.4,1.1,3.5,1.4c-0.7,0.3,0.2,0.9,1.4,0.9
	c1.8,0,2.3-0.5,1.8-1.9c-0.4-1.1-0.4-1.1,0.4-0.8c4.3,1.9,13.4,2.5,19.7,1.2l0.9-0.2l0,0.3c0,0.2,0,0.5,0,0.7c0,0.2,0,0.3,0.1,0.1
	c0-0.2,0.2-0.2,0.8-0.2c1.2,0,1.4-0.1,1.4-0.9l0-0.7l0.9-0.3c1.1-0.4,2.3-1,3.4-1.7c2.5-1.7,3.2-3.4,2.2-5.6c-0.5-1.1-0.6-1,0.9-1
	c0.7,0,1.4,0,1.6-0.1l0.3-0.1V87c0-1.4-0.2-1.8-0.7-1.8c-0.1,0-0.2-0.1-0.1-0.2c0.1-0.1,0.1-0.4,0.1-0.7l0.1-0.5h0.7h0.7l0.1,0.6
	l0.1,0.6l0-0.5c0-0.5,0-0.5,0.4-0.5c0.3,0,0.3,0,0.2,0.4c-0.1,0.3-0.1,0.6,0,1c0.2,0.9,0.1,2.1-0.1,1.7c-0.1-0.2-0.2-0.2-0.2-0.2
	C66,87.1,65.5,95,65.5,96c0,0.5,0,0.8,0,0.8c0-0.1-0.4-0.1-1-0.1c-1.2,0-1.1-0.1-1.3,1.5c-0.2,1.4-0.1,1.5,1.2,1.5
	c1.1,0,1.3-0.1,1.3-1c0.1-3.2,0.2-7.1,0.4-9.3l0.1-0.9l0.4,0c1.1,0,2-0.1,2-0.2c0-0.1-0.4-0.1-1.2-0.1c-1.1,0-1.2,0-1.2-0.2
	c0-0.2,0.1-0.2,1.2-0.2l1.2,0l0.1-0.6c0-0.3,0.1-1.2,0.1-1.9c0-1.3,0.1-1.5,0.5-1.4c0.2,0.1,0.2,0.2,0.3,0.6l0,0.5l0-0.5
	c0.1-0.6,0.2-0.7,0.8-0.7l0.5,0v0.6c0,0.3-0.1,0.7-0.2,0.9c-0.1,0.2-0.2,0.8-0.3,1.7l-0.1,1.5h0.4c0.2,0,0.5,0.1,0.6,0.1
	c0.2,0.1,0.2,0.1,0.2,0c0-0.1,0.4-0.1,1-0.1c0.5,0,1,0,1,0c0,0-0.2,0.4-0.4,0.9c-0.4,0.9-0.7,2.8-0.4,2.6c0.1,0,0.3,0.2,0.4,0.5
	c0.4,0.9,1.7,2.2,2.6,2.8c1,0.6,0.9,0.5,0.8,2.3c-0.2,1.7-0.1,1.9,1.1,2.1c1.2,0.2,2.1-0.2,2.1-1v-0.4l0.6,0.1
	c0.8,0.1,1.3-0.1,1.3-0.4c0-0.3-0.1-0.3,1.9,0c9.8,1.7,21.2-0.6,23.1-4.6c0.7-1.5,0.4-2.8-0.9-4.3l-0.6-0.7l0.7,0l0.7,0l0.8,0.9
	c1.7,1.8,2.4,3.4,2.3,5.3c-0.1,1-0.1,1,0.1,0.7c0.8-1.5-0.1-3.9-2.1-6c-0.6-0.6-0.9-1-0.8-1c1.4,0,1.7-1.3,0.4-2.3
	c-0.5-0.4-0.6-0.5-0.6-1c0-0.5-0.2-0.8-0.9-1l-0.4-0.1l0.7,0l0.7,0l1,1c0.5,0.6,1.3,1.4,1.7,1.9c0.4,0.5,0.8,0.8,0.9,0.8
	c0.1,0,0.1,0,0,0.1c-0.1,0.1,0.2,0.5,0.7,1.1c0.5,0.5,1.1,1.3,1.5,1.8c0.4,0.5,0.9,1.1,1.1,1.3c0.2,0.3,0.7,0.8,1.1,1.3
	s0.8,0.8,0.8,0.8c0.1,0,0.1,0,0-0.1c-0.1,0-0.1-0.1-0.1-0.2s0.1-0.1,0.1,0c0.1,0.1,0.1,0,0.1-0.1c0-0.1-0.1-0.1-0.2-0.1
	c-0.1,0-0.2-0.1-0.4-0.4c-0.2-0.4-1.3-1.6-1.8-2.2c-0.4-0.5-0.9-1.2-0.9-1.3c0,0,0.5,0.5,1.1,1.1c1,1.1,3.1,3.5,4.5,4.9
	c0.3,0.4,1.2,1.3,1.9,2.2c0.7,0.8,1.5,1.8,1.9,2.1c0.6,0.6,0.6,0.6,0.3,0.6c-0.4,0-0.6-0.2-1.2-0.8c-0.2-0.2-0.3-0.4-0.3-0.3
	c0,0.1-0.1-0.1-0.3-0.3c-0.2-0.2-0.3-0.3-0.3-0.2c0,0.1,0.3,0.5,0.8,0.9c0.4,0.4,0.8,0.8,0.8,0.8c0,0.1-107.8,0-107.9,0
	c0,0,0.3-0.4,0.7-0.9c2-2.2,5.6-6.4,5.6-6.5c0-0.1-0.1,0-0.1,0c-0.1,0.1-0.2,0.1-0.3,0.1c-0.1,0,0-0.1,0.1-0.2
	c0.1-0.1,0.3-0.1,0.3-0.1c0,0,0.3-0.2,0.6-0.6c0.3-0.3,0.6-0.7,0.7-0.9c0.3-0.2,2.6-3,3.5-4c0.2-0.3,0.5-0.5,0.5-0.5
	c0.2,0,0,2.2-0.3,2.4c-0.3,0.2,0.2,0.6,0.8,0.7l0.6,0.1l0.9-1c1.1-1.2,1.5-1.7,1.5-2.3c0-0.5-0.4-1.1-0.8-1.1
	c-0.1,0-0.3-0.1-0.3-0.1c0-0.1-0.1-0.1-0.1-0.1c-0.3,0-0.1,0.3,0.2,0.5c0.9,0.4,0.8,1.3-0.3,2.3l-0.8,0.7l-0.1-0.8c0-0.5,0-0.9,0-1
	c0.2-0.4,0.1-1-0.1-1.3c-0.2-0.2-0.2-0.2,0.7-1.2l0.9-1l3.9,0C34.4,83.8,37,83.8,38,83.9 M48.8,83.9c2.4,0.2,5.7,0.9,6.8,1.4
	c0.2,0.1,0.3,0.1,0.1,0.1c-0.1,0-0.4-0.1-0.5-0.1c-0.2,0-0.7-0.1-1.2-0.2c-2.8-0.6-8.6-0.9-10.8-0.6c-2,0.2-3.3,0.5-3.3,0.5
	c0,0.1,0.5,0.1,1.1,0c0.4-0.1,0.4-0.1-0.1,0.1c-0.7,0.3-0.8,0.4-0.2,0.3c0.2-0.1,0.5-0.1,0.6-0.1c0.1,0,0,0.1-0.1,0.1
	c-0.1,0-0.2,0.1-0.2,0.1s-0.1,0.1-0.3,0.1c-0.2,0-0.4,0.1-0.5,0.2c-0.1,0.1-0.2,0.1-0.1,0.1c0.3-0.2,1-0.3,1-0.2c0,0.1,0.2,0,0.4,0
	c0.2-0.1,0.5-0.1,0.6-0.1c0.2,0-0.1,0.1-0.9,0.4C40.9,86,41,86.1,41.5,86l0.7-0.1l-0.5,0.2l-0.5,0.2l0.8,0c0.5,0,0.7,0,0.5,0
	c-0.2,0.1-0.4,0.1-0.6,0.1c-0.2,0-0.3,0.1-0.3,0.1c0,0.1-0.2,0.1-0.4,0.2c-0.2,0-0.4,0.1-0.3,0.1c0.1,0,0.4,0,0.7-0.1
	c0.3-0.1,0.6-0.2,0.7-0.1c0.2,0,0.2,0.1-0.1,0.1c-0.8,0-0.2,0.2,0.7,0.2l1,0l-0.8,0.1c-0.9,0.1-3.1,0.8-3,0.9c0,0,0.3,0,0.6-0.1
	c0.3-0.1,0.7-0.2,0.8-0.2c0.2,0-0.1,0.2-0.7,0.4c-0.6,0.2-1.2,0.4-1.5,0.6c-0.5,0.3-1.2,0.4-0.9,0.2c0.2-0.2,0.1-0.4-0.1-0.1
	c-0.1,0.1-0.2,0.3-0.2,0.4c0,0.1-0.1,0.2-0.2,0.4c-0.1,0.2-0.1,0.2,0-0.2c0.1-0.3,0.3-0.6,0.4-0.7c0.2-0.3,0.2-0.4-0.1-0.2
	c-0.1,0.1-0.4,0.2-0.6,0.3c-0.2,0-0.4,0.2-0.6,0.3c-0.2,0.2-0.2,0.2-0.3,0c-0.1-0.1-0.2-0.1-0.3,0c-0.2,0.1-0.3,0.1-0.3,0
	c0-0.1-0.1-0.1-0.3-0.1c-0.2,0.1-0.2,0.1,0-0.2c0.2-0.2,0.1-0.4-0.1-0.2c-0.1,0.1-1.4,0.1-1.4,0c0,0,0.2-0.3,0.4-0.5
	c0.4-0.4,0.4-0.4-0.6,0.1c-0.9,0.4-1,0.5-0.8,0.2c0.5-0.6,0.4-0.7-0.1-0.3c-0.6,0.5-0.8,0.4-0.4-0.1c0.3-0.4,0.3-0.4-0.6,0.1
	c-0.8,0.4-1,0.4-0.3-0.1c0.6-0.5,0.5-0.5-0.5,0c-0.8,0.4-1.1,0.7-1.6,1.3c-0.2,0.2-0.2,0.2,0-0.2C31.4,85.8,41.2,83.3,48.8,83.9
	 M92.9,84.1c6.3,0.7,10.9,2.4,12,4.4l0.2,0.4l-0.5-0.5c-0.4-0.4-1.2-0.9-1.9-1.2c-0.4-0.2-0.4-0.1,0.2,0.3c0.7,0.5,0.6,0.6-0.3,0.2
	l-0.8-0.4l0.3,0.4c0.2,0.3,0.2,0.4,0.1,0.4c-0.1,0-0.2-0.1-0.3-0.1c0-0.1-0.3-0.2-0.6-0.4l-0.5-0.3l0.4,0.4c0.6,0.6,0.4,0.7-0.4,0.2
	c-0.9-0.5-1-0.5-0.6-0.1c0.4,0.5,0,0.8-0.6,0.4c-0.1-0.1-0.4-0.2-0.6-0.2L98.6,88l0.3,0.3c0.3,0.4,0.3,0.5,0,0.5
	c-0.2,0-0.3,0-0.3-0.1c0-0.1-0.1-0.1-0.2-0.1c-0.1,0-0.5-0.1-0.9-0.3c-0.9-0.4-0.9-0.4-0.6,0.1c0.4,0.5,0.4,0.7,0,0.3
	c-0.5-0.5-3.7-1.6-5.3-1.8c-0.5-0.1-0.3-0.1,1-0.1c0.9,0,1.6,0,1.4-0.1c-0.1-0.1-0.6-0.1-1-0.1l-0.7,0l0.6-0.1
	c0.8-0.1,0.9-0.2,0.2-0.3l-0.6,0l0.5-0.1c0.3-0.1,0.4-0.1,0.2-0.1c-0.2,0-0.4-0.1-0.5-0.1c-0.2-0.1,0-0.1,0.4-0.1
	c0.5,0,0.6,0,0.4-0.1c-0.2-0.1-0.2-0.1,0.3-0.1c0.7,0,0.7,0,0-0.2c-0.5-0.2-0.3-0.2,0.6,0c0.2,0,0.2,0-0.2-0.2l-0.5-0.2l0.5,0.1
	c0.3,0,0.4,0,0.3,0C94.3,85,94.3,85,94.6,85c0.2,0,0-0.1-0.5-0.2c-3.8-0.7-9.5-0.5-14.2,0.5c-1,0.2-1.1,0.1,0-0.2
	C84,83.9,88.2,83.5,92.9,84.1 M103.6,83.9c0.2,0.1,0.2,0.1,0,0.3c-0.1,0.1-0.3,0.4-0.4,0.6c-0.3,0.9,0.6,1.4,2.8,1.5l1.3,0.1
	l-0.5,0.2c-1.2,0.4-4.3-0.1-4.3-0.7c0-0.1-0.1-0.1-0.2-0.1c-0.1,0-1-0.2-1.9-0.5c-2.1-0.7-3.2-1-4.9-1.2L94.1,84l1.9-0.1
	C99.1,83.8,103.3,83.8,103.6,83.9 M106,84.2l0.4,0.2l-1.2,0c-1.3,0-1.5,0.2-0.4,0.5c0.4,0.1,0.9,0.1,1.3,0.1c0.5-0.1,0.6,0,0.6,0.1
	c0,0.7-2.4,0.8-2.9,0.2C103,84.4,104.8,83.5,106,84.2 M62.9,84.6c0.4,0.2,0.4,0.8,0,1c-0.4,0.2-0.6,0.1-0.7-0.3
	c-0.2-0.6-0.2-0.6,0.4-0.8C62.6,84.5,62.8,84.6,62.9,84.6 M68.2,84.8c0,0.2-0.1,0.2-0.7,0.2c-0.7,0-0.8,0-0.8-0.2
	C66.7,84.4,68.2,84.4,68.2,84.8 M72.6,84.7c0.5,0.2,0.4,1.1-0.2,1.1c-0.4,0-0.6-0.2-0.6-0.7C71.8,84.5,72,84.4,72.6,84.7 M29.1,85.1
	c-0.1,0-0.4,0.2-0.5,0.4c-0.2,0.3-0.1,0.3,0.3,0c0.1-0.1,0.7-0.2,1.4-0.3l1.2-0.1l-1.1,0C29.8,85,29.2,85.1,29.1,85.1 M68.6,86.4
	c0,0.7-0.1,0.4-0.2-0.5c-0.1-0.6,0-0.7,0-0.4C68.6,85.8,68.6,86.2,68.6,86.4 M68.1,85.4c0,0.1-0.3,0.1-0.7,0.1s-0.7-0.1-0.7-0.1
	c0-0.1,0.3-0.1,0.7-0.1S68.1,85.3,68.1,85.4 M71.5,85.4c0.4,0.1,0.3,0.2-0.2,0.3c-0.5,0.1-0.6,0-0.5-0.2
	C70.9,85.3,71,85.3,71.5,85.4 M64.4,85.7c0.1,0.1-0.1,0.2-0.5,0.2c-0.5,0-0.6-0.1-0.5-0.3C63.5,85.5,64.3,85.5,64.4,85.7 M61.2,85.9
	c0.6,0.7,0.5,1.4-0.4,1.5c-1,0.2-1.3-1.1-0.4-1.6C60.8,85.7,61,85.7,61.2,85.9 M74.9,86.1c0.5,0.6,0.2,1.3-0.6,1.3
	c-0.6,0-0.8-0.2-0.8-0.8C73.5,85.8,74.3,85.4,74.9,86.1 M72.1,87.5c0.2,0.1,0.1,0.1-0.2,0.1c-0.4,0-0.5-0.4-0.4-1.4
	c0.1-0.4,0.1-0.4,0.2,0.4C71.9,87,72,87.4,72.1,87.5 M26.5,86.1c0.3,0.2,0,0.5-0.4,0.3c-0.1,0-0.3-0.1-0.4-0.1c-0.2,0-0.2-0.1,0-0.3
	C25.9,85.9,26.2,85.9,26.5,86.1 M63.5,86.5c-0.1,0.6-0.2,0.6-0.2,0c0-0.3,0.1-0.5,0.1-0.5C63.5,86.1,63.5,86.3,63.5,86.5
	 M106.4,86.2c-0.1,0-0.3,0-0.5,0c-0.1,0-0.1-0.1,0.2-0.1C106.3,86.1,106.5,86.1,106.4,86.2 M41,86.4c0.1,0.1,0.3,0.1,0.4,0.1
	c0.2,0,0.2,0,0-0.1c-0.1-0.1-0.3-0.1-0.4-0.1C40.8,86.3,40.8,86.3,41,86.4 M68.9,89c0,1.1,0.2,3.1,0.3,4.3c0.1,1.2,0.2,3,0.3,4
	c0.1,2.3,0.1,2.2,1.3,2.2c1.4,0,1.4,0,1.3-1.4c-0.1-1.7,0-1.6-1.3-1.5l-1,0l-0.1-1.9c0-1.1-0.1-2.1-0.2-2.3
	c-0.1-0.2-0.1-0.9-0.1-1.5c0-0.6-0.1-1.7-0.1-2.4c-0.1-0.7-0.1-1.4-0.1-1.5c0-0.1,0-0.1-0.1-0.1C68.8,86.9,68.8,87,68.9,89
	 M49.9,87.4c2.5,0.9,2.4,2.8-0.1,3.7c-1.1,0.4-1.2,0.3-0.2-0.2c2.8-1.5,2.6-2.6-0.5-3.6c-0.8-0.2-0.8-0.3-0.3-0.2
	C49,87.1,49.6,87.3,49.9,87.4 M85.9,87.4c-2.8,0.9-3.1,2.1-0.8,3.3c0.8,0.4,0.8,0.5-0.1,0.2c-2.6-0.8-2.2-3,0.7-3.7
	C86.9,86.9,87,87,85.9,87.4 M63.3,87.7c-0.1,0.1-0.2-0.1-0.1-0.3l0.1-0.3l0,0.3C63.4,87.5,63.3,87.7,63.3,87.7 M63,87.6
	c0,0.3-0.2,0.5-0.6,0.5c-0.5,0-0.5-0.2,0-0.4C62.8,87.5,63,87.5,63,87.6 M95.8,88.4c0.2,0.1,0.5,0.2,0.5,0.1c0.1,0,0.1,0,0.1,0
	c-0.1,0.1,0.1,0.6,0.3,0.5c0.1,0,0.1,0,0.2,0.1c0.1,0.1,0,0.1-0.1,0C96.7,89,96.8,89.7,97,90c0.1,0.1,0.1,0.3,0,0.5
	c-0.1,0.2-0.1,0.3,0,0.2c0.3-0.2,0.1,0.2-0.3,0.5c-0.5,0.4-0.7,0.4-0.3,0l0.3-0.3l-0.6,0.2c-0.4,0.1-0.8,0.2-1.1,0.3l-0.4,0.1
	l0.5-0.3c2.3-1.3,2.1-2.4-0.7-3.3c-0.5-0.2-0.9-0.3-0.9-0.4C93.5,87.5,95.4,88.1,95.8,88.4 M47.9,88c1.1,0.4,1.6,0.8,1.6,1.3
	c0,2-8.3,2.4-9.1,0.5C39.7,88.2,44.8,86.9,47.9,88 M92.1,87.8c2.4,0.4,3.6,1.6,2.4,2.4c-1.5,1-4.6,1.1-7.3,0.3
	C83.4,89.3,87.4,87,92.1,87.8 M72.9,87.9c0.3,0.2,0,0.4-0.4,0.4c-0.4,0-0.6-0.1-0.5-0.4C72.1,87.7,72.7,87.7,72.9,87.9 M44.5,88.1
	c-0.3,0.5,0,1.6,0.4,1.3c0.1-0.1,0.2-0.2,0.1-0.2c-0.1,0-0.1-0.2-0.1-0.6C44.9,88,44.7,87.8,44.5,88.1 M90.1,88.4
	c-0.2,0.6-0.2,0.9,0.1,1c0.4,0.1,0.6,0,0.6-0.5C90.8,88,90.4,87.7,90.1,88.4 M90.5,88.7c0,0.3-0.1,0.5-0.1,0.5
	c-0.1,0-0.1-0.2-0.1-0.5s0.1-0.5,0.1-0.5C90.4,88.2,90.5,88.4,90.5,88.7 M106.3,89.1c1.8,2.1,2.5,4.1,2.3,5.9l-0.1,0.5l0.2-0.4
	c0.7-1.3-0.3-4.2-2.1-6.1C105.8,88.3,105.6,88.3,106.3,89.1 M63.5,89.2c0,0.3,0,0.7,0,0.7c0,0.1,0.7,0.2,1.2,0.1
	c0.4-0.1,0.4-0.1,0.4-0.7c0-0.7-0.6-1-0.6-0.3c0,0.2-0.7,0.1-0.8-0.2C63.5,88.6,63.5,88.6,63.5,89.2 M70.3,88.9
	c-0.1,0.1-0.1,0.4-0.1,0.6V90h0.8c0.8,0,0.9-0.1,0.8-0.7c0-0.3-0.3-0.4-0.7-0.1c-0.1,0.1-0.2,0.1-0.3,0c-0.2-0.1-0.2-0.1,0-0.2
	c0.2-0.1,0.2-0.2-0.1-0.2C70.5,88.7,70.4,88.8,70.3,88.9 M38.5,89.3c-0.3,0.6,0.2,1.5,1.3,2.1c0.5,0.3,0.3,0.3-0.6,0
	c-1-0.3-1.8-1.2-1.4-1.6c0,0,0.1,0,0.1,0.1c0,0.3,0.3,0.1,0.3-0.2c0-0.3,0.4-0.8,0.5-0.7C38.7,88.9,38.6,89.1,38.5,89.3 M105.5,90.1
	c0,4.1-11.1,6.5-21,4.7c-5.1-1-8.9-3.1-9.3-5.1l-0.1-0.5l0.3,0.6c0.5,0.9,1.1,1.4,2.9,2.3c6.5,3.5,17.7,4,23.5,1.1
	c0.8-0.4,0.7-0.4-0.2-0.1c-0.9,0.3-0.9,0.3-0.8,0.1c0.1-0.1,0-0.1-0.1,0c-0.1,0.1-0.4,0.1-0.6,0.1c-0.3,0-0.3,0,0-0.1
	c0.2-0.1,0.5-0.2,0.5-0.3c0.1-0.1,0.1-0.1-0.1-0.1c-0.6,0.2-0.9,0.2-0.4,0c0.2-0.1,0.4-0.3,0.4-0.3c0-0.1-0.9,0.3-1,0.4
	C99.6,93,99.4,93,99.3,93c-0.2,0-0.2,0,0-0.1c0.3-0.1,0-0.1-0.6,0c-0.2,0.1-0.4,0.1-0.4,0c0,0,0.3-0.2,0.7-0.2
	c0.4-0.1,0.8-0.2,0.9-0.3c0.1-0.1,0-0.1-0.2,0c-0.2,0.1-0.3,0-0.3-0.1c0.1-0.2,0-0.2-0.3,0c-0.1,0.1-0.5,0.1-0.9,0.2
	c-0.6,0-0.6,0-0.3-0.1c0.5-0.3,0.3-0.3-0.3-0.1c-0.9,0.3-1.4,0.3-1.3,0.2c0-0.1,0.1-0.1,0.2-0.1c0.1,0,0.4-0.1,0.7-0.3
	c0.3-0.2,0.5-0.3,0.4-0.2c-1.8,0.5-2.6,0.6-1.7,0.2c0.8-0.4,2-1.2,2.2-1.6c0.2-0.3,0.4-0.2,0.4,0.3c0,0.5,0.1,0.5,0.9,0.1l0.6-0.4
	l0.1,0.5c0.1,0.6,0.1,0.6,0.7,0.2c0.2-0.2,0.5-0.3,0.5-0.2c0.1,0.2,0.1,0.8,0,1c-0.1,0.2-0.1,0.2,0.1,0c0.1-0.1,0.2-0.2,0.1-0.3
	c0-0.1,0-0.1,0.1,0c0.1,0,0.2,0,0.4,0c0.1-0.1,0.4-0.1,0.6-0.1l0.3,0l-0.3,0.3c-0.3,0.4-0.3,0.4,0.4,0c0.9-0.6,1-0.3,0.1,0.4
	l-0.6,0.5l0.8-0.4c1.5-0.7,2.2-1.7,2-2.8c-0.1-0.5-0.1-0.5,0.1-0.2C105.5,89.6,105.5,89.9,105.5,90.1 M30.1,90.9
	c0.5,0.9,3.5,2.6,5.5,3.2c4.8,1.4,12.9,1.1,18.2-0.8c3.1-1.1,5.5-2.5,5.8-3.5c0.2-0.5,0.4-0.5,0.3,0C59.4,92,55.3,94,49.2,95
	c-1.9,0.3-9.4,0.3-11.4,0c-5.2-0.8-8.8-3.2-8.2-5.4c0.1-0.3,0.1-0.2,0.2,0.3C29.8,90.2,30,90.7,30.1,90.9 M66.9,89.4
	c-0.3,0.1-0.3,0.1-0.4,2.1c-0.1,2.4-0.2,2.2,0.9,2.2c1.1,0.1,1.1,0.1,1.2-1c0-0.6,0-0.8,0-0.5c-0.1,0.2-0.1,0,0-0.6
	C68.7,89.6,68.3,89,66.9,89.4 M68,89.6c0.4,0.4-0.2,0.8-1,0.6c-0.3-0.1-0.3-0.1-0.1-0.3C67.3,89.5,67.8,89.3,68,89.6 M82.6,89.8
	c0.2,0.2,0.8,0.5,1.3,0.8c1,0.6,1,0.6,0,0.4c-1-0.2-1.5-0.4-1.7-0.9C81.9,89.4,81.9,89.4,82.6,89.8 M53,89.9c0,0.1-0.1,0.4-0.2,0.6
	l-0.2,0.3l0.8-0.3c0.4-0.2,0.9-0.4,1-0.4c0.2-0.2,0.4,0,0.3,0.3c-0.2,0.4-0.1,0.4,0.4,0.2c0.9-0.4,1-0.4,0.6,0
	c-0.4,0.4-0.4,0.5,0.1,0.2c0.4-0.2,0.4-0.2,0.2,0.2l-0.1,0.2l0.4-0.3c0.6-0.3,0.6-0.3,0.4,0.1l-0.2,0.3l0.4-0.4
	C57,90.9,57,90.9,57,91c-0.1,0.2-0.1,0.2,0.2,0c0.3-0.3,0.3-0.2,0,0.2c-0.4,0.6-2.3,1.4-4,1.8c-1.2,0.2-1.3,0.2-0.3-0.2
	c0.9-0.3,0.9-0.4,0-0.2c-0.8,0.1-2.4,0.2-2.2,0.1c0.1,0,0.5-0.1,0.9-0.2c1.2-0.2,1-0.3-0.3-0.2L50,92.4l0.9-0.3
	c1.1-0.4,1.1-0.4,0-0.2c-1.3,0.3-1.9,0.2-1-0.1c0.4-0.1,0.8-0.3,0.8-0.4c0.1-0.1,0.1-0.1-0.1-0.1c-0.5,0.1-1.6,0.3-1.6,0.2
	c0,0,0.1-0.1,0.3-0.2c0.5-0.1,3-1.4,3.1-1.6C52.8,89.6,53,89.6,53,89.9 M81.7,90.4c0.4,0.1,0.9,0.4,1.1,0.6c0.2,0.2,0.6,0.4,0.7,0.5
	c0.4,0.2-0.3,0.2-0.8,0c-0.2-0.1-0.2-0.1-0.1,0c0.1,0.1-0.1,0.1-0.7,0.1l-0.9-0.1l0.6,0.3c0.7,0.3,0.7,0.4-0.1,0.1
	c-0.4-0.1-0.5-0.1-0.4,0c0.1,0.1,0.1,0.1-0.3,0.1c-0.3,0-0.4,0-0.4,0c0,0.1,0.1,0.1,0.2,0.1s0.2,0.1,0.2,0.1c0,0.1-0.1,0.1-0.4,0.1
	l-0.5-0.1l0.5,0.2c0.3,0.1,0.4,0.2,0.2,0.2c-0.1,0-0.4-0.1-0.6-0.1c-1.1-0.2-1.9-0.6-2.5-1.1c-0.7-0.6-0.7-0.7-0.1-0.3
	c0.6,0.4,0.8,0.4,0.4-0.1c-0.3-0.3-0.3-0.6,0-0.3c0.2,0.2,1.2,0.5,1,0.3c-0.1-0.1-0.1-0.2,0.1-0.2c0.3,0,0.3,0,0.1-0.2
	c-0.3-0.3,0-0.3,0.7-0.1c0.6,0.3,0.7,0.2,0.6-0.2c-0.1-0.4-0.1-0.4,0.2-0.3C81,90.1,81.4,90.3,81.7,90.4 M39.1,91.9
	c1,0.3-0.1,0.2-1.6-0.2c-0.2,0-0.1,0,0.1,0.2c0.2,0.1,0.4,0.2,0.5,0.2c0.1,0,0.1,0,0,0.1c0,0.1,0,0.2,0.1,0.2c0.1,0,0.1,0.1-0.1,0.1
	c-0.1,0-0.2,0-0.3-0.1c0-0.1-0.2-0.2-0.5-0.2L37,91.9l0.3,0.2c0.4,0.3,0.3,0.4-0.1,0.2c-0.6-0.3-1-0.4-0.5-0.1
	c0.6,0.3,0.5,0.4-0.2,0.1c-0.8-0.3-0.9-0.3-0.4,0c0.2,0.1,0.3,0.2,0.2,0.2c-0.1,0-0.2,0-0.4-0.1c-0.4-0.2-0.6-0.2-0.4,0.1
	c0.2,0.3-0.2,0.2-0.5,0c-0.2-0.2-0.2-0.2,0.1-0.1c0.2,0.1,0.3,0,0.1-0.1c-0.4-0.2-0.6,0-0.3,0.2c0.2,0.1,0.3,0.2,0.4,0.2
	c0.1,0,0.1,0.1,0.1,0.1c0,0.1-0.2,0.1-1-0.3c-0.3-0.2-0.6-0.3-0.6-0.2c0,0,0.1,0.1,0.2,0.1c0.1,0,0.2,0.1,0.2,0.2
	c0,0.1,0.1,0.1,0.3,0.2c0.1,0-0.1,0-0.5,0c-0.9,0-1.6-0.4-2.2-1c-0.4-0.5-0.3-0.6,0.2-0.3c0.5,0.3,0.6,0.3,0.4,0.1
	c-0.2-0.2-0.1-0.2,0.3-0.1c0.2,0.1,0.2,0.1,0.1-0.1c-0.2-0.4,0-0.4,0.5-0.2c0.5,0.3,0.7,0.1,0.7-0.4c0-0.2,0-0.2,0.3,0
	c0.8,0.5,0.8,0.5,0.8,0c0-0.7,0.1-0.7,0.7-0.2c0.6,0.5,1.2,0.8,1,0.6c-0.1-0.1-0.1-0.4-0.1-0.7v-0.5l1,0.8
	C38.1,91.4,38.8,91.8,39.1,91.9 M28,90.7c-0.2,0.4-0.3,1.8-0.1,2c0,0.1,0,0.1,0,0.1c-0.2,0-0.9-0.9-0.8-1C27.6,91,28.5,89.9,28,90.7
	 M63.6,90.3c-0.1,0-0.3,0.1-0.3,0.1c0,0-0.1,0.3-0.1,0.7c-0.1,0.4-0.2,1.2-0.2,1.9c-0.1,0.7-0.2,1.4-0.3,1.5c-0.2,0.3-0.1,0.4,1,0.4
	l1,0.1l0.1-1c0-0.6,0.1-1.6,0.2-2.4l0.1-1.4l-0.6,0C64.2,90.3,63.8,90.3,63.6,90.3 M70.1,90.6c0,0.2,0.1,1,0.1,1.9
	c0,0.9,0.1,1.8,0.1,2.1l0.1,0.5l0.6,0c1.1,0,1.5-0.1,1.4-0.4c0-0.1-0.2-1.1-0.3-2.2c-0.3-2.3-0.1-2.1-1.2-2.1l-0.9,0L70.1,90.6
	 M64.5,90.7c0,0.5-0.9,0.6-1,0.1c0-0.3,0-0.3,0.3-0.3c0.2,0,0.4-0.1,0.5-0.1C64.5,90.4,64.5,90.5,64.5,90.7 M71.6,90.8
	c0,0.2,0,0.3-0.2,0.2C71.3,91,71,91,70.8,91c-0.3,0-0.4,0-0.3-0.2C70.6,90.3,71.6,90.4,71.6,90.8 M68.3,90.7c0,0.1-0.9,0.1-1.3,0
	c-0.2-0.1-0.1-0.1,0.5-0.1C67.9,90.6,68.3,90.7,68.3,90.7 M29.1,92.8c2.3,3.9,14.7,6.1,23.4,4c0.7-0.2,0.7-0.2,0.7,0.1
	c0,0.6-5.6,1.2-10.2,1.1c-8.5-0.3-14.6-3-14.6-6.4l0-0.4l0.1,0.5C28.7,92,28.9,92.5,29.1,92.8 M64.1,91.5c0.4,0,0.4,0,0.4,0.4v0.4
	H64c-0.8,0-0.9-0.3,0-0.4c0.6,0,0.6,0,0.1-0.1c-0.6-0.1-0.7-0.2-0.5-0.4c0.1-0.1,0.2-0.1,0.2-0.1C63.7,91.4,63.9,91.5,64.1,91.5
	 M106.4,92.6c-0.8,2.8-6.3,5-13.6,5.4c-4.2,0.2-10.9-0.5-10.9-1.2c0-0.2,0.1-0.2,0.2-0.2c2.9,1.1,11.6,1.2,16.4,0.1
	c4.6-1,7.5-2.9,7.9-5.1l0.1-0.5l0,0.5C106.5,91.9,106.5,92.3,106.4,92.6 M74.6,92.9c0.3,0.3,0.9,0.8,1.4,1.2
	c0.6,0.4,0.9,0.7,0.9,0.8c0,0.3-0.1,0.3-0.6-0.1c-0.2-0.2-0.5-0.3-0.5-0.3c-0.2,0-1.6-1.6-1.9-2.1c-0.4-0.8-0.6-1.3-0.1-0.6
	C73.9,92.2,74.3,92.6,74.6,92.9 M61.2,92.6c-0.6,1.3-2.3,2.5-4.7,3.5c-1.1,0.4-1.2,0.5-1.1,0.1c0-0.2,0.2-0.3,0.9-0.6
	c2.3-0.9,4.3-2.3,5-3.6C61.7,91.3,61.6,91.8,61.2,92.6 M89.4,91.9c1.3,0.2,1.8,0.3,1,0.4c-0.4,0-0.5,0-0.1,0.1
	c0.6,0.1,0.4,0.3-0.2,0.2c-0.5,0-0.5,0,0.1,0.1l0.7,0.2l-0.5,0l-0.5,0l0.4,0.1c0.4,0.1,0.4,0.1-0.2,0.1l-0.6,0l0.5,0.1
	c0.5,0.1,0.5,0.1-0.4,0.1l-0.9,0l0.8,0.1l0.8,0.1l-0.5,0.1c-0.5,0.1-0.5,0.1-0.2,0.2l0.4,0.1L89.5,94c-0.2,0-0.5,0.1-0.7,0.1
	c-0.2,0-0.4,0.1-0.3,0.1c0,0.1,0,0.1-0.1,0.1c-0.1,0-0.2,0-0.1,0.1c0.1,0.1-1.5-0.1-2.3-0.3c-0.8-0.2-0.5-0.3,0.3-0.1
	c1,0.2,1,0.1,0.1-0.2c-0.9-0.3-0.9-0.3,0-0.2l0.7,0.1l-0.5-0.2c-0.4-0.1-0.4-0.2-0.2-0.2c0.3,0,0.3,0,0-0.1c-0.1,0-0.3-0.1-0.3-0.1
	c0-0.1,0.2-0.1,0.5,0c0.8,0.1,0.8,0.1,0.1-0.1l-0.6-0.2l0.6,0.1c0.7,0.1,0.8,0,0.2-0.2c-0.4-0.1-0.3-0.1,0.2-0.1c0.3,0,0.5,0,0.4,0
	c-0.1,0-0.2-0.1-0.2-0.2c0-0.1-0.1-0.1-0.3-0.2c-0.2,0,0,0,0.4,0c0.4,0,0.7,0,0.7-0.1s-0.1-0.1-0.2-0.1c-0.1,0-0.3-0.1-0.4-0.1
	c-0.1-0.1-0.1-0.1,0.2-0.1C88.1,91.8,88.8,91.9,89.4,91.9 M71.6,92.1c0.1,0.2,0,0.2-0.5,0.2c-0.4,0-0.6-0.1-0.6-0.2
	C70.5,91.7,71.5,91.7,71.6,92.1 M47.1,92c0.6,0.1,0.2,0.3-0.8,0.3l-0.9,0l0.8-0.1l0.8-0.1L46.2,92L45.5,92l0.6,0
	C46.4,91.9,46.9,92,47.1,92 M70.9,92c0.1,0,0.3,0,0.4,0c0.1,0,0-0.1-0.2-0.1S70.8,92,70.9,92 M47,92.5c-0.3,0-0.8,0-1.1,0
	c-0.3,0-0.1,0,0.5,0C47,92.5,47.3,92.5,47,92.5 M76.3,93.3c0.2,0,0.6,0.2,0.9,0.4l0.7,0.3l-0.3,0.1c-0.2,0.1-0.4,0.1-0.5,0.1
	c-0.2,0-1.6-1.3-1.8-1.6c-0.1-0.2,0-0.1,0.3,0.2C75.8,93,76.1,93.2,76.3,93.3 M59.9,92.6c0,0.5-3.8,2.9-4.5,2.9
	c-0.4,0,0.1-0.6,0.7-0.9c1.1-0.4,2.5-1.2,2.8-1.6c0.2-0.2,0.2-0.2,0.2-0.1c-0.1,0.2-0.1,0.2,0,0.2c0.1,0,0.2-0.1,0.3-0.2
	c0-0.1,0.1-0.1,0.2-0.1c0.1,0,0.1,0,0.2-0.1C59.8,92.5,59.9,92.5,59.9,92.6 M71.6,93.2c0,0.6,0,0.6-0.1,0.2c-0.1-0.4,0-0.8,0.1-0.8
	C71.6,92.5,71.6,92.8,71.6,93.2 M101.2,92.7c-0.2,0.1-0.3,0.2-0.3,0.2c0,0.1,0.2,0,0.4-0.1c0.3-0.1,0.5-0.4,0.3-0.3
	C101.6,92.6,101.4,92.6,101.2,92.7 M105.1,93.6c-0.3,0.3-0.5,0.5-0.6,0.5c0,0,0.2-0.2,0.4-0.5c0.3-0.3,0.5-0.6,0.5-0.8
	c0-0.3,0-0.3,0.1,0C105.6,93,105.4,93.2,105.1,93.6 M47.5,92.7l0.4,0.1L47.4,93l-0.5,0.2l0.7,0c0.5,0,0.6,0,0.4,0.1
	c-0.7,0.3-0.8,0.4-0.5,0.3c1.2-0.2,1.2-0.2,0.8-0.1c-0.2,0.1-0.5,0.2-0.7,0.2c-0.3,0.1-0.2,0.1,0.4,0.1c0.6,0,0.7,0,0.5,0.1
	c-0.8,0.3-0.8,0.4,0,0.3l0.8-0.1l-0.6,0.2c-0.6,0.2-2.3,0.2-1.7,0.1c0.3-0.1,0.2-0.1-0.2-0.1l-0.5,0l0.5-0.1l0.5-0.1l-0.5,0
	c-0.4,0-0.4,0-0.2-0.1c0.2-0.1,0.2-0.1-0.2-0.1c-0.6-0.1-0.5-0.3,0.1-0.4l0.5-0.1l-0.7,0l-0.7,0l0.6-0.1c0.3,0,0.7-0.1,0.7-0.2
	c0,0-0.1,0-0.4,0c-0.3,0-0.6,0-0.7-0.1C45.6,92.6,46.8,92.6,47.5,92.7 M64.1,93.1C64,93.2,63.9,93,64,92.8c0.1-0.2,0.1-0.2,0.1,0
	C64.2,92.9,64.2,93.1,64.1,93.1 M30.6,93.7c0,0.1-0.1,0.1-0.2,0.1c-0.1,0-0.1,0-0.1-0.1c0,0-0.1-0.2-0.3-0.4L29.7,93l0.5,0.3
	C30.5,93.5,30.7,93.7,30.6,93.7 M24.7,93.4c1.8,0.7,4.3,2.4,4.5,3.1c0.1,0.4,0,0.4-0.9-0.1c-0.5-0.2-1.6-0.6-2.6-0.9l-1.7-0.5
	L24,94.3c0-0.4-0.1-0.8-0.2-0.8c-0.1,0-0.2-0.1-0.4-0.2C23.1,93,23.9,93.1,24.7,93.4 M19.3,93.8c-0.6,0.7-0.8,0.9-1.1,1.2
	c-0.1,0.2-0.6,0.7-0.9,1.1c-0.4,0.4-0.7,0.8-0.7,0.9c0,0.1-0.1,0.2-0.2,0.3c-0.2,0.2-0.2,0.1,0-0.1c0.1-0.1,0-0.1-0.2,0.1
	c-0.2,0.2-0.4,0.5-0.5,0.6c-0.1,0.1-0.1,0.2,0,0.1c0.1-0.1,0.1-0.1,0.1,0c-0.1,0.1-0.1,0.1-0.3,0c-0.1-0.1-0.2-0.1-0.1,0
	c0.1,0.1,0,0.1,0,0.1c-0.1,0-0.1,0.1-0.1,0.2c0,0.1,0,0.2,0,0.1c-0.1,0-0.1,0-0.2,0.1c0,0.1,0,0,0-0.1c0.1-0.3,0.1-0.3-0.1-0.1
	c-0.1,0.1-0.2,0.3-0.2,0.4c0,0.1-0.2,0.3-0.4,0.5c-0.2,0.2-0.3,0.4-0.3,0.4c0.1,0.2-0.6,0.7-1,0.7h-0.4l0.7-0.7
	c0.4-0.4,0.7-0.6,0.8-0.6c0.1,0,0.2,0,0.2-0.1c0-0.1,0-0.1,0-0.1c-0.1,0-0.2,0-0.2,0c-0.1-0.1,2.6-2.9,2.7-2.8c0.1,0,0.1,0,0-0.1
	c0-0.1,0.1-0.4,0.4-0.6c0.3-0.3,0.5-0.4,0.4-0.3c-0.1,0.2-0.1,0.2,0.1,0c0.1-0.1,0.1-0.3,0.1-0.3c0-0.1,0-0.1,0.1,0
	c0.2,0.1,0.5-0.2,0.4-0.4c-0.1-0.1,0-0.1,0.1-0.1c0.1,0.1,0.2,0,0.2-0.2c0.1-0.2,0.1-0.2,0.1-0.2c0,0,0.2-0.1,0.3-0.2
	c0.2-0.2,0.3-0.4,0.3-0.4c0-0.1,0-0.1,0.1,0C19.6,93.4,19.5,93.5,19.3,93.8 M22.8,93.6c0.3,0.3,0.1,0.4-0.6,0.4l-0.5,0l0.4,0.1
	c0.5,0.1,0.7,0.2,0.3,0.2c-0.5,0-1.1-0.3-1.1-0.5c0-0.2,0.2-0.3,1.1-0.4C22.5,93.4,22.7,93.5,22.8,93.6 M23.3,96.4
	c0,0.7,0,1-0.1,0.9c-0.1-0.2-0.2-2.7-0.1-3C23.1,94,23.3,95.4,23.3,96.4 M78.8,94.4c0.3,0.3,0.3,0.5-0.1,0.6
	c-0.5,0.2-1.1,0.1-1.3-0.1C77.1,94.3,78.3,93.9,78.8,94.4 M81.3,94.7c0.2,0.3,0,0.3-0.6,0.3c-0.6,0-0.9-0.2-0.5-0.4
	C80.4,94.4,81.2,94.5,81.3,94.7 M66.6,94.8c-0.1,0.1-0.2,0.5-0.2,1.8l0,1.7l0.3,0.1c0.4,0.1,1.8,0.1,1.9,0c0,0,0-0.7,0-1.5l-0.1-1.4
	h-0.9c-0.9,0-1-0.1-0.8-0.5c0.1-0.1,0.3-0.1,0.8-0.1c0.9,0,1,0.2,1.1,2c0,0.9,0.1,1.4,0.2,1.3c0.1-0.1,0-3.1-0.2-3.4
	C68.6,94.7,66.9,94.6,66.6,94.8 M54.8,95.1c-0.1,0.2-0.9,0.3-1.1,0.2c-0.2-0.2,0.2-0.3,0.7-0.3C54.7,94.9,54.9,95,54.8,95.1
	 M81.4,95.3c0,0.1-0.2,0.1-0.7,0.1l-0.7,0l0,0.8c0,0.4,0,0.9-0.1,1c-0.1,0.2-0.2-1.5-0.1-1.8C80,95.1,81.4,95.1,81.4,95.3
	 M25.5,95.6c0.7,0.2,1.4,0.4,1.5,0.5l0.3,0.1L27,96.2c-1.6-0.3-2.9-0.6-2.9-0.7C24.1,95.2,24.1,95.2,25.5,95.6 M78.3,95.5l0.9,0v0.4
	c0,0.2,0,1,0.1,1.7c0.1,1.7-0.1,1.1-0.2-0.7L79,95.7l-0.4,0.1c-0.2,0-0.5,0.1-0.6,0.1c-0.1,0-0.2,0-0.3-0.1
	c-0.2-0.3-0.3,0.1-0.3,1.5c0,1,0,1.6-0.1,1.6c-0.1,0-0.1-0.6,0-2.3c0-0.7,0.1-1.2,0.2-1.1C77.4,95.5,77.7,95.5,78.3,95.5 M55,95.6
	c0.1,0.4,0.1,2.5,0,2.2c-0.1-0.2-0.1-0.7-0.1-1.2l0-0.9l-0.3,0.1c-0.2,0-0.4,0.1-0.5,0.1c-0.1,0.1-0.2,0-0.2-0.1
	c0-0.1,0.1-0.2,0.3-0.2c0.2,0,0.4-0.1,0.5-0.1C54.9,95.4,55,95.4,55,95.6 M60.5,95.5c-0.2,0.1-0.3,0.5-0.1,0.6c0.1,0,0.2,0,0.2-0.1
	c0.1-0.1,0.3-0.1,0.5-0.1c0.3,0,0.4,0,0.4-0.2C61.6,95.4,61.1,95.3,60.5,95.5 M111.3,95.9c-1.3,0.7-1.8,1.9-1.1,2.4
	c0.9,0.7,4.5,0.9,5.9,0.3l0.7-0.3l0-0.5c-0.1-1-0.6-1.6-1.6-1.9c-0.7-0.2-1.2-0.2-1.2,0c0,0.1-0.1,0-0.1-0.1
	C113.6,95.2,112.3,95.3,111.3,95.9 M53.2,95.9c0,0.2,0,0.3-0.1,0.3c0,0-0.6,0.1-1.2,0.2c-2.3,0.5-3.5,0.6-4.9,0.6l-1.3,0l1.9-0.3
	c2.2-0.3,4.9-0.9,5.2-1C53.1,95.6,53.2,95.6,53.2,95.9 M68.1,95.8c0.2,0.1,0,0.1-0.6,0.1c-0.6,0-0.8,0-0.7-0.1
	C67,95.6,67.7,95.6,68.1,95.8 M83.5,96c0.8,0.2,2.4,0.5,3.4,0.7C88,96.8,89,97,89.2,97c0.9,0.1-2.6-0.1-3.8-0.2
	c-2.2-0.3-3.5-0.6-3.5-0.9C81.9,95.6,81.7,95.6,83.5,96 M113.4,96c0,0.3,0,0.3-0.6,0.3c-0.7,0-1-0.1-0.9-0.4
	C112.1,95.5,113.4,95.6,113.4,96 M31.7,97c0.4,1.8,0.3,1.9-0.2,0.2c-0.2-0.8-0.3-0.9-0.4-0.6C31,97,30.2,97,30,96.7
	c-0.2-0.3,0-0.4,0.7-0.5c0.3,0,0.5-0.1,0.5-0.2C31.2,95.6,31.5,96.3,31.7,97 M115.3,96.4c0.3,0.1,0.6,0.3,0.7,0.5
	c0.1,0.2,0.1,0.2-0.4,0c-1.2-0.6-1.8-0.5-1.8,0.5l0,0.6l-0.6,0c-2.1-0.1-2.9-0.6-2.1-1.5l0.3-0.3l0.5,0.2c0.7,0.3,1.6,0.3,2-0.1
	C114.1,96,114.3,96,115.3,96.4 M105.5,96.4c0,0.1,0.4,0.1,0.8,0.1s0.8-0.1,0.8-0.1c0-0.1-0.3-0.1-0.8-0.1
	C105.7,96.2,105.4,96.3,105.5,96.4 M118.2,96.7c0.6,0.7,1.8,2,1.5,1.5c-0.5-0.6-1.7-1.9-1.8-1.9C117.9,96.4,118,96.5,118.2,96.7
	 M77.8,97c0,0.1-0.1,0-0.1-0.2c0-0.2,0-0.3,0.1-0.2C77.8,96.7,77.8,96.9,77.8,97 M20,96.9c-0.1,0.2-0.1,0.3-0.1,0.4
	c0,0.1,0.1,0,0.2-0.1c0.1-0.2,0.1-0.3,0.1-0.4C20.1,96.7,20.1,96.8,20,96.9 M65.4,97.4l0,0.6l-1,0l-1,0l0.1-0.4
	c0.1-0.6,0.1-0.6,1-0.6h0.8L65.4,97.4 M71.6,97.2c0.1,0.7,0,0.8-0.7,0.7c-0.7,0-1.4-0.3-1-0.4c0.3-0.1,0.3-0.2,0-0.3
	c-0.5-0.2-0.2-0.4,0.7-0.4h0.9L71.6,97.2 M29.7,97.8l0,0.8L29.7,97.8c-0.1-0.3-0.1-0.7-0.1-0.7C29.7,96.8,29.8,97,29.7,97.8
	 M64,97.4c0.2,0,0.5,0,0.6,0c0.1,0,0-0.1-0.3,0C63.9,97.3,63.8,97.4,64,97.4 M105.5,97.5c-0.2,0.1-0.2,0.4,0.1,0.8
	c0.2,0.3,0.3,0.3,1.7,0.3c1.7,0,1.7,0,1.1-0.7l-0.4-0.4l-1.2,0C106.2,97.4,105.5,97.5,105.5,97.5 M108.1,97.7c0,0,0,0.1,0.1,0.2
	c0.1,0.2-0.1,0.2-1.2,0.2c-1.1,0-1.2-0.1-1.3-0.2c0-0.2,0.1-0.2,1.2-0.2C107.5,97.7,108.1,97.7,108.1,97.7 M100.3,98.3
	c0.1,0.6,0.2,0.7,1.9,0.7c1.2,0,1.6,0,1.6-0.1c0-0.2-0.5-0.9-0.6-0.9c-0.1,0-0.1,0.1,0.1,0.3c0.4,0.5,0.2,0.6-1.1,0.6
	c-1.2,0-1.6-0.1-1.6-0.5c0-0.2,0.1-0.2,1-0.3l1,0l-1.2-0.1l-1.2-0.1L100.3,98.3 M60.2,98.2c-0.3,0.1-0.5,0.9-0.3,1.2
	c0.1,0.2,2.4,0.2,2.6-0.1c0.2-0.2,0.3-1,0.1-1.1C62.3,98.1,60.4,98,60.2,98.2 M73.3,98.1c-0.7,0.1-0.9,0.8-0.3,1.2
	c0.3,0.2,2.6,0.2,2.7,0C76,98.3,75.1,97.9,73.3,98.1 M56.5,98.4c-0.6,0.8-0.2,1.1,1.4,1.1c1.2,0,1.4-0.1,1.4-0.9l0-0.4l-1.3,0
	C56.7,98.1,56.7,98.2,56.5,98.4 M59,98.7l0,0.4l-1.2,0c-1.3,0-1.4-0.1-1.2-0.6c0.1-0.2,0.2-0.2,1.3-0.2h1.1L59,98.7 M62.2,98.7V99
	l-1,0c-1.1,0-1.3-0.1-1-0.6c0.1-0.2,0.2-0.2,1.1-0.2l1,0V98.7 M75.3,98.5c0.3,0.5,0.1,0.6-0.9,0.6c-1.2,0-1.3-0.1-1.3-0.5v-0.3h1.1
	C75.1,98.3,75.2,98.3,75.3,98.5 M121.8,101.6l0,0.2H67.7c-52.4,0-54.1,0-54.1-0.2c0-0.1,0-0.2,0-0.3c0,0,24.3,0,54,0l54,0
	L121.8,101.6 M117.4,102.7c4.1,0,4.3,0,4.3,0.2c0,0.4-0.4,0.4-52.8,0.4c-52.2,0-55.3,0-55.3-0.4c0-0.2,0.2-0.2,3.7-0.3
	C20.5,102.6,105.1,102.7,117.4,102.7 M121.6,104c0.1,0,0.2,0.1,0.1,0.2c-0.1,0.3-108.1,0.3-108.1,0c0-0.1,0.2-0.2,0.4-0.2
	C14.6,103.9,121.4,103.9,121.6,104 M115.7,109.4c1.2,0-20.5,0.1-48.1,0.1s-48.4,0-46.3-0.1C27.2,109.3,113.3,109.3,115.7,109.4"/>
<g>
	<path d="M163.8,76v19.4h-22.1V38.7h22.1v19.4h9.7l20.8-19.4h29L193.9,67l29.4,28.3h-29L173.5,76H163.8z"/>
	<path d="M285.6,38.8h26.3l30.4,56.7h-24.9l-4.5-9.7h-28.4l-4.5,9.7h-24.9L285.6,38.8z M291,71.9h15.6l-7.8-16.7L291,71.9z"/>
	<path d="M409.5,60.6c15.8,0.8,38,1.9,38,16.1c0,16.2-18.6,20-38.5,20c-19.9,0-36.4-2.4-38.5-20h23.2c2.5,4.4,8.4,5.5,15.3,5.5
		c6.9,0,15.3-1.1,15.3-5.5c0-2.5-6.9-2.9-15.8-3.3c-15.8-0.8-38-1.9-38-16.1c0-16.2,18.6-20.1,38.5-20.1
		c19.9,0.1,36.4,2.4,38.5,20.1h-23.2c-2.5-4.5-8.4-5.5-15.3-5.5c-6.9,0-15.3,1-15.3,5.5C393.7,59.9,400.6,60.2,409.5,60.6z"/>
	<path d="M505.7,38.7v56.7h-22.1V38.7H505.7z"/>
</g>
</svg>
