<?xml version="1.0" encoding="utf-8"?>
<!-- Generator: Adobe Illustrator 27.3.1, SVG Export Plug-In . SVG Version: 6.00 Build 0)  -->
<svg version="1.1" id="Layer_1" xmlns="http://www.w3.org/2000/svg" xmlns:xlink="http://www.w3.org/1999/xlink" x="0px" y="0px"
	 viewBox="0 0 24 24" style="enable-background:new 0 0 24 24;" xml:space="preserve">
<style type="text/css">
	.st0{fill:#757575;}
</style>
<g>
	<path class="st0" d="M6.5,23.5v-23h4.3c1.4,0,2.6,0.2,3.5,0.6c0.9,0.4,1.6,1.1,2.1,2s0.7,2.1,0.7,3.5c0,0.9-0.1,1.7-0.3,2.4
		c-0.2,0.7-0.5,1.3-0.8,1.8c-0.4,0.5-0.9,0.9-1.5,1.1l3,11.5h-2.9l-2.8-10.8H9.5v10.8H6.5z M9.5,10.4h1.1c0.8,0,1.5-0.1,2.1-0.3
		c0.5-0.2,0.9-0.6,1.2-1.2c0.2-0.5,0.4-1.3,0.4-2.3c0-1.3-0.2-2.3-0.7-2.9s-1.4-0.9-2.7-0.9H9.5V10.4z"/>
</g>
</svg>
